<svg width="100" height="43" viewBox="0 0 100 43" fill="none" xmlns="http://www.w3.org/2000/svg">
<g clip-path="url(#clip0_208_4959)">
<path d="M0 0.269287H6.0207C9.28975 0.269287 11.5828 1.73267 11.5828 4.53065C11.5828 5.90038 10.9243 7.28181 9.68956 7.99594V8.04277C11.571 8.61642 12.2531 10.2788 12.2531 11.7071C12.2531 15.266 9.27799 16.5538 6.03246 16.5538H0V0.269287ZM6.06773 6.57939C7.07902 6.57939 7.51411 5.85355 7.51411 5.08089C7.51411 4.30822 7.07902 3.68775 6.00894 3.68775H4.02164V6.57939H6.07949H6.06773ZM6.40875 13.1353C7.57291 13.1353 8.14911 12.3393 8.14911 11.4261C8.14911 10.513 7.59643 9.76371 6.43227 9.76371H3.99812V13.1353H6.39699H6.40875Z" fill="#231F20"/>
<path d="M20.3203 0.269287H30.5625V3.68775H24.3184V6.64963H29.3043V10.0681H24.3184V13.147H30.8918V16.5538H20.3203V0.269287Z" fill="#231F20"/>
<path d="M39.0049 0.269287H44.6964C46.3662 0.269287 47.1658 0.386358 47.8713 0.65562C49.7293 1.35804 50.8934 3.02044 50.8934 5.39698C50.8934 7.12962 50.0703 9.01446 48.4475 9.83395V9.88078C48.4475 9.88078 48.671 10.1735 49.0708 10.8642L52.2458 16.5538H47.789L44.8845 11.0632H43.003V16.5538H38.9932V0.269287H39.0049ZM44.7434 7.64473C46.0251 7.64473 46.8248 6.94231 46.8248 5.64282C46.8248 4.41358 46.3662 3.68775 44.3553 3.68775H43.003V7.65644H44.7434V7.64473Z" fill="#231F20"/>
<path d="M67.4035 0C71.5898 0 73.6947 2.1658 73.6947 2.1658L71.7779 5.1511C71.7779 5.1511 70.1081 3.6526 67.7916 3.6526C64.3579 3.6526 62.9586 5.84182 62.9586 8.25347C62.9586 11.3558 65.1105 13.1938 67.6505 13.1938C69.5672 13.1938 70.9666 12.0114 70.9666 12.0114V10.7588H68.6618V7.36373H74.5178V16.5655H71.1782V16.1089C71.1782 15.7694 71.2017 15.4299 71.2017 15.4299H71.1547C71.1547 15.4299 69.579 16.8464 66.8508 16.8464C62.6646 16.8464 58.8193 13.7207 58.8193 8.39396C58.8193 3.6526 62.4059 0.0117071 67.4035 0.0117071" fill="#231F20"/>
<path d="M94.8498 14.7158C93.6386 16.2377 91.2985 16.9752 89.0407 16.9752C84.1254 16.9752 82.585 14.2826 82.585 12.1285C82.585 10.1032 83.7961 8.34714 86.8418 7.2818C85.3954 6.00573 85.0544 4.89356 85.0544 3.98041C85.0544 1.79119 86.5596 0.316101 89.2877 0.316101C91.8512 0.316101 93.4269 1.93167 93.4269 3.85163C93.4269 5.1277 92.6508 6.64962 90.2755 7.63301L94.6028 11.6134C95.0614 10.8642 95.2613 10.1969 95.3554 9.08468H97.5073C97.4368 10.3608 97.1428 11.6836 96.155 13.0534L100 16.5889H96.8253L94.8615 14.7392L94.8498 14.7158ZM88.147 8.54616C85.6071 9.63491 85.0073 10.7354 85.0073 12.0583C85.0073 13.3812 85.9481 15.067 89.1466 15.067C90.7693 15.067 92.3451 14.6807 93.3328 13.4046L88.1353 8.55787L88.147 8.54616ZM88.9232 6.40377C90.6635 5.70134 91.275 4.7882 91.275 3.9687C91.275 3.03214 90.4754 2.21264 89.3112 2.21264C87.8413 2.21264 87.2063 3.03214 87.2063 3.85163C87.2063 4.67112 87.759 5.32672 88.9232 6.40377" fill="#231F20"/>
<path d="M0 26.4462H5.69144C7.36124 26.4462 8.16086 26.5633 8.86642 26.8326C10.7244 27.535 11.8885 29.1974 11.8885 31.5739C11.8885 33.3066 11.0654 35.1914 9.44261 36.0109V36.0577C9.44261 36.0577 9.66604 36.3504 10.0659 37.0411L13.2408 42.7307H8.7841L5.87959 37.2401H3.99812V42.7307H0V26.4462ZM5.73848 33.8217C7.02023 33.8217 7.81985 33.1192 7.81985 31.8198C7.81985 30.5905 7.36124 29.8647 5.35042 29.8647H3.99812V33.8334H5.73848V33.8217Z" fill="#231F20"/>
<path d="M26.7637 26.4462H22.7656V42.7307H26.7637V26.4462Z" fill="#231F20"/>
<path d="M36.7949 26.4462H42.604C47.7545 26.4462 51.047 29.4315 51.047 34.5592C51.047 39.6869 47.7545 42.7307 42.604 42.7307H36.7949V26.4462V26.4462ZM42.4511 39.3123C45.2145 39.3123 46.9078 37.6733 46.9078 34.5475C46.9078 31.4217 45.1439 29.853 42.4511 29.853H40.8048V39.3006H42.4511V39.3123Z" fill="#231F20"/>
<path d="M67.4035 26.1769C71.5898 26.1769 73.6947 28.3427 73.6947 28.3427L71.7779 31.328C71.7779 31.328 70.1081 29.8295 67.7916 29.8295C64.3579 29.8295 62.9586 32.0188 62.9586 34.4304C62.9586 37.5328 65.1105 39.3708 67.6505 39.3708C69.5672 39.3708 70.9666 38.1884 70.9666 38.1884V36.9357H68.6618V33.5407H74.5178V42.7424H71.1782V42.2858C71.1782 41.9463 71.2017 41.6068 71.2017 41.6068H71.1547C71.1547 41.6068 69.579 43.0234 66.8508 43.0234C62.6646 43.0234 58.8193 39.8976 58.8193 34.5709C58.8193 29.8295 62.4176 26.1886 67.4035 26.1886" fill="#231F20"/>
<path d="M84.2783 26.4462H94.5323V29.8647H88.2882V32.8266H93.2741V36.245H88.2882V39.3123H94.8498V42.7307H84.2783V26.4462Z" fill="#231F20"/>
</g>
<defs>
<clipPath id="clip0_208_4959">
<rect width="100" height="43" fill="white"/>
</clipPath>
</defs>
</svg>
