<svg width="112" height="56" viewBox="0 0 112 56" fill="none" xmlns="http://www.w3.org/2000/svg">
<g clip-path="url(#clip0_242_4970)">
<path d="M110.492 54.5294H1.50781V1.46814H110.492V54.5294ZM2.2239 53.7953H109.779V2.20478H2.2239V53.7953Z" fill="white"/>
<path d="M111.823 0.184204H0.178711V55.8159H111.823V0.184204Z" stroke="#CFCECE" stroke-width="1.42" stroke-miterlimit="10"/>
<path d="M14.6973 21.1239H19.7099C20.3629 21.1239 20.9278 21.3885 21.3993 21.915C21.8582 22.4545 22.0901 23.0978 22.0901 23.8448C22.0901 24.5529 21.9515 25.1624 21.6716 25.6786C21.4043 26.1922 21.0589 26.4879 20.6353 26.5657C21.1925 26.6694 21.659 26.9833 22.0347 27.5098C22.3978 28.0364 22.5793 28.6485 22.5793 29.3436C22.5793 30.2307 22.2994 30.9907 21.7447 31.621C21.1749 32.2513 20.4966 32.5651 19.7099 32.5651H14.6973V21.1239ZM19.5662 26.2752C20.0629 26.2752 20.4865 26.0365 20.837 25.5619C21.1875 25.0872 21.364 24.514 21.364 23.8448C21.364 23.3053 21.1875 22.841 20.837 22.4545C20.4865 22.068 20.0629 21.8761 19.5662 21.8761H15.4234V26.2752H19.5662ZM19.5662 31.8311C20.1965 31.8311 20.7336 31.5873 21.1824 31.097C21.6312 30.6094 21.8556 30.0232 21.8556 29.341C21.8556 28.6589 21.6312 28.1323 21.1824 27.681C20.7336 27.2167 20.194 26.9859 19.5662 26.9859H15.4234V31.8285H19.5662V31.8311Z" fill="white"/>
<path d="M28.0107 34.8295H28.8277C29.1555 34.8295 29.4202 34.6817 29.627 34.386C29.8211 34.0903 29.917 33.6987 29.917 33.2084V24.1016H30.6431V33.2084C30.6431 33.8776 30.4792 34.4119 30.154 34.8088C29.8136 35.2082 29.3723 35.408 28.8277 35.408H28.0107V34.8295ZM29.917 20.8801H30.6431V22.0577H29.917V20.8801Z" fill="white"/>
<path d="M39.5658 31.6002L38.6405 32.9516H37.8967L39.1322 31.1567C38.6833 30.6301 38.3455 29.9999 38.116 29.2658C37.874 28.5188 37.7529 27.7147 37.7529 26.8536C37.7529 25.0276 38.1891 23.5672 39.0616 22.4727C39.934 21.3807 41.0964 20.8334 42.5487 20.8334C43.1186 20.8334 43.6506 20.9242 44.1473 21.1031C44.6566 21.2847 45.1029 21.5467 45.4912 21.8942L46.399 20.6025H47.1428L45.9451 22.3585C46.3939 22.8851 46.7394 23.5413 46.9814 24.3272C47.2235 25.1002 47.3445 25.9406 47.3445 26.8562C47.3445 28.62 46.9083 30.0336 46.0359 31.1022C45.1635 32.1709 44.0011 32.7026 42.5487 32.7026C41.409 32.7026 40.4181 32.3369 39.5684 31.6028L39.5658 31.6002ZM43.9078 21.8164C43.4716 21.6504 43.0177 21.5648 42.5462 21.5648C41.3107 21.5648 40.3248 22.0473 39.586 23.0122C38.8472 23.9771 38.4791 25.2558 38.4791 26.851C38.4791 27.5721 38.5699 28.2464 38.7514 28.8767C38.9456 29.507 39.2179 30.0543 39.5684 30.516L45.055 22.509C44.7272 22.2003 44.3465 21.9695 43.9103 21.8138L43.9078 21.8164ZM45.5064 30.5757C46.2452 29.6497 46.6133 28.4073 46.6133 26.851C46.6133 26.078 46.5175 25.3647 46.3233 24.7085C46.1418 24.0523 45.8695 23.4868 45.5064 23.0096L40.0021 30.9985C40.3399 31.3201 40.7358 31.5639 41.1821 31.7325C41.6183 31.9011 42.0722 31.9841 42.5437 31.9841C43.7792 31.9841 44.7651 31.5146 45.5038 30.5757H45.5064Z" fill="white"/>
<path d="M55.8096 32.5651V21.1239H56.8081L63.3109 31.621V21.1239H64.037V32.5651H63.0385L56.5357 22.2237V32.5651H55.8096Z" fill="white"/>
<path d="M72.5068 32.4976V21.0564H73.5053L80.0081 31.5535V21.0564H80.7343V32.4976H79.7358L73.233 22.1562V32.4976H72.5068Z" fill="white"/>
<path d="M89.042 20.8438H93.3108C94.448 20.8438 95.4238 21.391 96.2357 22.483C97.035 23.5646 97.4359 24.8745 97.4359 26.4204C97.4359 28.0415 97.0375 29.424 96.2357 30.5679C95.4238 31.7117 94.4505 32.285 93.3108 32.285H89.042V20.8438ZM93.3108 31.5535C94.2437 31.5535 95.043 31.0529 95.7087 30.0491C96.3743 29.0453 96.7072 27.8366 96.7072 26.4204C96.7072 25.082 96.3743 23.9433 95.7087 23.0044C95.043 22.0654 94.2437 21.596 93.3108 21.596H89.7682V31.5535H93.3108Z" fill="white"/>
</g>
<defs>
<clipPath id="clip0_242_4970">
<rect width="112" height="56" fill="white"/>
</clipPath>
</defs>
</svg>
