<svg width="184" height="184" viewBox="0 0 184 184" fill="none" xmlns="http://www.w3.org/2000/svg">
<path d="M8.3848 54.3879H6.94434V129.228H8.3848V54.3879Z" fill="#595959"/>
<path d="M1.8887 75.4944H0.448242V108.107H1.8887V75.4944Z" fill="#595959"/>
<path d="M14.8838 42.3719H13.4434V141.229H14.8838V42.3719Z" fill="#595959"/>
<path d="M21.3946 33.4614H19.9541V150.155H21.3946V33.4614Z" fill="#595959"/>
<path d="M26.4512 67.904H27.8916V26.366H26.4512V157.235H27.8916V114.977H26.4512V67.904Z" fill="#595959"/>
<path d="M34.3897 114.977H32.9492V163.041H34.3897V114.977Z" fill="#595959"/>
<path d="M34.3897 20.5604H32.9492V67.9038H34.3897V20.5604Z" fill="#595959"/>
<path d="M40.8868 114.977H39.4463V167.826H40.8868V114.977Z" fill="#595959"/>
<path d="M40.8868 15.7601H39.4463V67.9038H40.8868V15.7601Z" fill="#595959"/>
<path d="M47.3828 11.7249H45.9424V67.9789C46.4375 68.0089 46.9177 68.0539 47.3828 68.1289V11.7249Z" fill="#595959"/>
<path d="M45.9424 171.876H47.3828V114.782C46.9027 114.842 46.4225 114.872 45.9424 114.902V171.876Z" fill="#595959"/>
<path d="M52.4561 175.177H53.8965V113.102C53.4314 113.312 52.9512 113.492 52.4561 113.672V175.192V175.177Z" fill="#595959"/>
<path d="M53.8965 8.42444H52.4561V69.4338C52.9512 69.6438 53.4464 69.8689 53.8965 70.1239V8.42444Z" fill="#595959"/>
<path d="M58.9521 84.6751V93.2707C59.5373 93.9307 60.0025 94.6658 60.3926 95.4308V5.73938H58.9521V75.6744C59.4923 77.0245 59.7924 78.5246 59.7924 80.2047C59.7924 81.7198 59.5073 83.25 58.9521 84.6601V84.6751Z" fill="#595959"/>
<path d="M58.9521 177.862H60.3926V107.072C59.9875 107.897 59.5073 108.647 58.9521 109.337V177.862V177.862Z" fill="#595959"/>
<path d="M66.8887 3.60919H65.4482V180.007H66.8887V3.60919Z" fill="#595959"/>
<path d="M73.3877 1.9892H71.9473V181.597H73.3877V1.9892Z" fill="#595959"/>
<path d="M79.8848 0.894165H78.4443V182.722H79.8848V0.894165Z" fill="#595959"/>
<path d="M86.3955 0.264038H84.9551V183.352H86.3955V0.264038Z" fill="#595959"/>
<path d="M92.8936 0.0689697H91.4531V65.9087H92.8936V0.0689697Z" fill="#595959"/>
<path d="M92.8936 116.972H91.4531V183.517H92.8936V116.972Z" fill="#595959"/>
<path d="M177.384 54.3879H175.943V129.228H177.384V54.3879Z" fill="#595959"/>
<path d="M183.897 75.4944H182.456V108.107H183.897V75.4944Z" fill="#595959"/>
<path d="M170.888 42.3719H169.447V141.229H170.888V42.3719Z" fill="#595959"/>
<path d="M164.391 33.4614H162.95V150.155H164.391V33.4614Z" fill="#595959"/>
<path d="M157.895 26.366H156.454V75.0145C157.114 76.2295 157.594 77.5796 157.895 79.0798V26.366Z" fill="#595959"/>
<path d="M157.895 114.977H156.454V157.22H157.895V114.977Z" fill="#595959"/>
<path d="M156.454 104.717L157.895 107.312V86.1903C157.594 87.5854 157.114 88.9655 156.454 90.2256V104.717Z" fill="#595959"/>
<path d="M151.396 114.977H149.955V163.041H151.396V114.977Z" fill="#595959"/>
<path d="M151.232 95.5508V95.6858C151.232 95.6858 151.292 95.7608 151.397 95.9108V95.4608C151.397 95.4608 151.292 95.5358 151.232 95.5658V95.5508Z" fill="#595959"/>
<path d="M151.396 20.5604H149.955V69.1939C150.45 69.4039 150.93 69.614 151.396 69.869V20.5604Z" fill="#595959"/>
<path d="M144.885 15.7601H143.444V67.9488C143.954 67.9638 144.435 67.9938 144.885 68.0388V15.7601Z" fill="#595959"/>
<path d="M143.444 167.841H144.885V106.577L143.444 103.846V167.841Z" fill="#595959"/>
<path d="M138.386 99.1061H136.945V171.861H138.386V99.1061Z" fill="#595959"/>
<path d="M138.386 11.7249H136.945V67.9039H138.386V11.7249Z" fill="#595959"/>
<path d="M131.89 8.42444H130.449V67.9037H131.89V8.42444Z" fill="#595959"/>
<path d="M131.89 114.977H130.449V175.177H131.89V114.977Z" fill="#595959"/>
<path d="M124.027 67.9039H125.393V5.73938H123.952V177.862H125.393V114.977H124.027V67.9039Z" fill="#595959"/>
<path d="M118.897 3.60919H117.456V180.007H118.897V3.60919Z" fill="#595959"/>
<path d="M112.384 1.9892H110.943V181.597H112.384V1.9892Z" fill="#595959"/>
<path d="M105.887 0.894165H104.446V182.722H105.887V0.894165Z" fill="#595959"/>
<path d="M99.3907 0.264038H97.9502V183.352H99.3907V0.264038Z" fill="#595959"/>
<path d="M58.9502 93.2708C57.8249 91.9957 56.3094 90.9606 54.3137 90.3606V90.2256C56.5044 88.9655 58.0649 86.9554 58.9502 84.6752C59.5054 83.2501 59.7905 81.735 59.7905 80.2199C59.7905 78.5397 59.4904 77.0246 58.9502 75.6895C57.9899 73.2894 56.2493 71.4292 53.8936 70.1391C53.4435 69.8841 52.9483 69.6591 52.4531 69.4491C50.9527 68.819 49.2571 68.384 47.3965 68.129C46.9314 68.069 46.4512 68.024 45.9561 67.979C45.2508 67.934 26.4648 67.889 26.4648 67.889V114.977H43.7954C44.5306 114.977 45.2508 114.947 45.9711 114.902C46.4512 114.872 46.9314 114.827 47.4115 114.782C49.1971 114.572 50.8926 114.212 52.4681 113.657C52.9633 113.492 53.4435 113.297 53.9086 113.087C55.9192 112.202 57.6448 110.957 58.9652 109.337C59.5204 108.647 60.0005 107.897 60.4057 107.072C61.2309 105.362 61.7111 103.337 61.7111 100.951C61.7111 99.1212 61.291 97.1861 60.4057 95.416C60.0156 94.6509 59.5504 93.9158 58.9652 93.2558L58.9502 93.2708ZM37.9735 77.7747H43.7053C44.6056 77.7747 45.3409 77.9397 45.9411 78.2247C46.5713 78.5097 47.0514 78.9148 47.3815 79.4248C47.8317 80.0999 48.0567 80.9099 48.0567 81.795C48.0567 82.68 47.8317 83.5951 47.3815 84.3302C47.0364 84.8852 46.5713 85.3502 45.9411 85.6803C45.3859 85.9653 44.7107 86.1453 43.9004 86.1453H37.9735V77.7747V77.7747ZM47.3815 104.552C46.9464 104.762 46.4812 104.927 45.9411 105.017C45.611 105.077 45.2658 105.107 44.8907 105.107H37.9735V95.356H44.9507C45.2959 95.356 45.626 95.386 45.9411 95.446C46.4812 95.521 46.9614 95.671 47.3815 95.866C49.0771 96.646 49.9023 98.2812 49.9023 100.171C49.9023 102.061 49.0621 103.712 47.3815 104.552V104.552Z" fill="#191919"/>
<path d="M151.395 95.911C151.29 95.761 151.23 95.686 151.23 95.686V95.551C151.23 95.551 151.335 95.476 151.395 95.446C153.616 94.2759 155.312 92.4007 156.452 90.2106C157.112 88.9355 157.592 87.5704 157.893 86.1753C158.133 85.0202 158.283 83.8651 158.283 82.71C158.283 81.42 158.133 80.2199 157.893 79.0798C157.592 77.5947 157.112 76.2296 156.452 75.0145C155.267 72.8093 153.556 71.0542 151.395 69.8541C150.93 69.5991 150.45 69.3891 149.955 69.1791C149.835 69.1341 149.715 69.0591 149.58 69.0141C148.304 68.519 146.924 68.204 144.883 68.039C144.433 68.009 143.953 67.979 143.443 67.949C142.558 67.904 124.012 67.889 124.012 67.889V114.977H135.535V99.1062H140.937L149.31 114.977H162.154C162.154 114.977 151.636 96.271 151.38 95.911H151.395ZM144.898 87.7804C144.493 88.1554 143.998 88.4405 143.458 88.6805C142.633 89.0405 141.672 89.2355 140.562 89.2355H135.55V77.7747H139.437C141.132 77.7747 142.438 77.9547 143.443 78.2997C144.013 78.4947 144.493 78.7498 144.883 79.0498C146.159 80.0249 146.549 81.51 146.549 83.4451C146.549 85.3802 145.949 86.8053 144.883 87.7804H144.898Z" fill="#191919"/>
<path d="M94.2723 65.9088H90.0859V116.987H94.2723V65.9088Z" fill="#191919"/>
</svg>
