<svg width="123" height="123" viewBox="0 0 123 123" fill="none" xmlns="http://www.w3.org/2000/svg">
<g clip-path="url(#clip0_244_4958)">
<path d="M5.28996 36.21H4.32996V86.1H5.28996V36.21Z" fill="white"/>
<path d="M0.96 50.28H0V72.02H0.96V50.28Z" fill="white"/>
<path d="M9.62003 28.2H8.66003V94.1H9.62003V28.2Z" fill="white"/>
<path d="M13.96 22.26H13V100.05H13.96V22.26Z" fill="white"/>
<path d="M17.33 45.22H18.29V17.53H17.33V104.77H18.29V76.6H17.33V45.22Z" fill="white"/>
<path d="M22.62 76.6H21.66V108.64H22.62V76.6Z" fill="white"/>
<path d="M22.62 13.66H21.66V45.22H22.62V13.66Z" fill="white"/>
<path d="M26.95 76.6H25.99V111.83H26.95V76.6Z" fill="white"/>
<path d="M26.95 10.46H25.99V45.22H26.95V10.46Z" fill="white"/>
<path d="M31.2799 7.77002H30.3199V45.27C30.6499 45.29 30.9699 45.32 31.2799 45.37V7.77002Z" fill="white"/>
<path d="M30.3199 114.53H31.2799V76.47C30.9599 76.51 30.6399 76.53 30.3199 76.55V114.53Z" fill="white"/>
<path d="M34.66 116.73H35.62V75.35C35.31 75.49 34.99 75.61 34.66 75.73V116.74V116.73Z" fill="white"/>
<path d="M35.62 5.57001H34.66V46.24C34.99 46.38 35.32 46.53 35.62 46.7V5.57001Z" fill="white"/>
<path d="M38.99 56.4V62.13C39.38 62.57 39.69 63.06 39.95 63.57V3.78003H38.99V50.4C39.35 51.3 39.55 52.3 39.55 53.42C39.55 54.43 39.36 55.45 38.99 56.39V56.4Z" fill="white"/>
<path d="M38.99 118.52H39.95V71.33C39.68 71.88 39.36 72.38 38.99 72.84V118.52Z" fill="white"/>
<path d="M44.2799 2.35999H43.3199V119.95H44.2799V2.35999Z" fill="white"/>
<path d="M48.61 1.28003H47.65V121.01H48.61V1.28003Z" fill="white"/>
<path d="M52.94 0.539978H51.98V121.75H52.94V0.539978Z" fill="white"/>
<path d="M57.2799 0.130005H56.3199V122.18H57.2799V0.130005Z" fill="white"/>
<path d="M61.61 0H60.65V43.89H61.61V0Z" fill="white"/>
<path d="M61.61 77.93H60.65V122.29H61.61V77.93Z" fill="white"/>
<path d="M117.92 36.21H116.96V86.1H117.92V36.21Z" fill="white"/>
<path d="M122.26 50.28H121.3V72.02H122.26V50.28Z" fill="white"/>
<path d="M113.59 28.2H112.63V94.1H113.59V28.2Z" fill="white"/>
<path d="M109.26 22.26H108.3V100.05H109.26V22.26Z" fill="white"/>
<path d="M104.93 17.53H103.97V49.96C104.41 50.77 104.73 51.67 104.93 52.67V17.53Z" fill="white"/>
<path d="M104.93 76.6H103.97V104.76H104.93V76.6Z" fill="white"/>
<path d="M103.97 69.76L104.93 71.49V57.41C104.73 58.34 104.41 59.26 103.97 60.11V69.77V69.76Z" fill="white"/>
<path d="M100.6 76.6H99.64V108.64H100.6V76.6Z" fill="white"/>
<path d="M100.49 63.65V63.74C100.49 63.74 100.53 63.79 100.6 63.89V63.59C100.6 63.59 100.53 63.64 100.49 63.66V63.65Z" fill="white"/>
<path d="M100.6 13.66H99.64V46.08C99.97 46.22 100.29 46.36 100.6 46.53V13.66Z" fill="white"/>
<path d="M96.26 10.46H95.3V45.25C95.64 45.26 95.96 45.28 96.26 45.31V10.46Z" fill="white"/>
<path d="M95.3 111.84H96.26V71L95.3 69.18V111.84Z" fill="white"/>
<path d="M91.93 66.02H90.97V114.52H91.93V66.02Z" fill="white"/>
<path d="M91.93 7.77002H90.97V45.22H91.93V7.77002Z" fill="white"/>
<path d="M87.6 5.57001H86.64V45.22H87.6V5.57001Z" fill="white"/>
<path d="M87.6 76.6H86.64V116.73H87.6V76.6Z" fill="white"/>
<path d="M82.3601 45.22H83.2701V3.78003H82.3101V118.52H83.2701V76.6H82.3601V45.22Z" fill="white"/>
<path d="M78.94 2.35999H77.98V119.95H78.94V2.35999Z" fill="white"/>
<path d="M74.6 1.28003H73.64V121.01H74.6V1.28003Z" fill="white"/>
<path d="M70.2701 0.539978H69.3101V121.75H70.2701V0.539978Z" fill="white"/>
<path d="M65.94 0.130005H64.98V122.18H65.94V0.130005Z" fill="white"/>
<path d="M38.99 62.13C38.24 61.28 37.23 60.59 35.9 60.19V60.1C37.36 59.26 38.4 57.92 38.99 56.4C39.36 55.45 39.55 54.44 39.55 53.43C39.55 52.31 39.35 51.3 38.99 50.41C38.35 48.81 37.19 47.57 35.62 46.71C35.32 46.54 34.99 46.39 34.66 46.25C33.66 45.83 32.53 45.54 31.29 45.37C30.98 45.33 30.66 45.3 30.33 45.27C29.86 45.24 17.34 45.21 17.34 45.21V76.6H28.89C29.38 76.6 29.86 76.58 30.34 76.55C30.66 76.53 30.98 76.5 31.3 76.47C32.49 76.33 33.62 76.09 34.67 75.72C35 75.61 35.32 75.48 35.63 75.34C36.97 74.75 38.12 73.92 39 72.84C39.37 72.38 39.69 71.88 39.96 71.33C40.51 70.19 40.83 68.84 40.83 67.25C40.83 66.03 40.55 64.74 39.96 63.56C39.7 63.05 39.39 62.56 39 62.12L38.99 62.13ZM25.01 51.8H28.83C29.43 51.8 29.92 51.91 30.32 52.1C30.74 52.29 31.06 52.56 31.28 52.9C31.58 53.35 31.73 53.89 31.73 54.48C31.73 55.07 31.58 55.68 31.28 56.17C31.05 56.54 30.74 56.85 30.32 57.07C29.95 57.26 29.5 57.38 28.96 57.38H25.01V51.8ZM31.28 69.65C30.99 69.79 30.68 69.9 30.32 69.96C30.1 70 29.87 70.02 29.62 70.02H25.01V63.52H29.66C29.89 63.52 30.11 63.54 30.32 63.58C30.68 63.63 31 63.73 31.28 63.86C32.41 64.38 32.96 65.47 32.96 66.73C32.96 67.99 32.4 69.09 31.28 69.65Z" fill="white"/>
<path d="M100.6 63.89C100.53 63.79 100.49 63.74 100.49 63.74V63.65C100.49 63.65 100.56 63.6 100.6 63.58C102.08 62.8 103.21 61.55 103.97 60.09C104.41 59.24 104.73 58.33 104.93 57.39C105.09 56.62 105.19 55.85 105.19 55.08C105.19 54.22 105.09 53.42 104.93 52.66C104.73 51.67 104.41 50.76 103.97 49.95C103.18 48.48 102.04 47.31 100.6 46.51C100.29 46.34 99.97 46.2 99.64 46.06C99.56 46.03 99.48 45.98 99.39 45.95C98.54 45.62 97.62 45.41 96.26 45.3C95.96 45.28 95.64 45.26 95.3 45.24C94.71 45.21 82.35 45.2 82.35 45.2V76.59H90.03V66.01H93.63L99.21 76.59H107.77C107.77 76.59 100.76 64.12 100.59 63.88L100.6 63.89ZM96.27 58.47C96 58.72 95.67 58.91 95.31 59.07C94.76 59.31 94.12 59.44 93.38 59.44H90.04V51.8H92.63C93.76 51.8 94.63 51.92 95.3 52.15C95.68 52.28 96 52.45 96.26 52.65C97.11 53.3 97.37 54.29 97.37 55.58C97.37 56.87 96.97 57.82 96.26 58.47H96.27Z" fill="white"/>
<path d="M62.53 43.89H59.74V77.94H62.53V43.89Z" fill="white"/>
</g>
<defs>
<clipPath id="clip0_244_4958">
<rect width="122.26" height="122.3" fill="white"/>
</clipPath>
</defs>
</svg>
