<svg width="594" height="41" viewBox="0 0 594 41" fill="none" xmlns="http://www.w3.org/2000/svg">
<g clip-path="url(#clip0_212_5176)">
<path d="M16.7165 39.9239H0V1.18372H17.9472C22.4596 1.23752 25.6901 2.63647 27.5874 5.32676C28.7155 6.99474 29.2795 8.93175 29.2795 11.2454C29.2795 13.559 28.7155 15.4961 27.5874 16.9488C26.972 17.7559 25.9978 18.5092 24.7671 19.1548C26.6644 19.8543 28.1001 21.038 29.0231 22.5446C29.9974 24.105 30.4589 25.9882 30.4589 28.1942C30.4589 30.4002 29.8949 32.5525 28.818 34.3819C28.1001 35.5656 27.2284 36.5879 26.2029 37.4488C25.0235 38.4173 23.639 39.063 21.9981 39.3858C20.4085 39.7625 18.6138 39.9239 16.7678 39.9239H16.7165ZM20.3572 15.4961C21.3828 14.8504 21.8443 13.7205 21.8443 12.1063C21.8443 10.2769 21.1777 9.09316 19.8444 8.55511C18.7163 8.17847 17.2293 7.96324 15.4346 7.96324H7.38398V16.5184H16.4601C18.101 16.5184 19.3829 16.1955 20.4085 15.5499L20.3572 15.4961ZM16.5114 22.8674H7.38398V33.1982H16.4601C18.101 33.1982 19.3317 32.9829 20.2547 32.4987C21.8955 31.6378 22.716 30.0236 22.716 27.6562C22.716 25.6653 21.9468 24.2664 20.3572 23.5131C19.4855 23.0827 18.2036 22.8674 16.6139 22.8674H16.5114Z" fill="#1D1D1B"/>
<path d="M64.6608 22.9751H46.7136V32.9291H67.1221V39.8701H39.1758V1.18372H66.2504V8.01705H46.7136V16.2493H64.6608V22.9751Z" fill="#1D1D1B"/>
<path d="M90.8638 24.6968H82.9157V39.8701H75.3779V1.18372H93.4789C96.0428 1.18372 98.0426 1.56036 99.4271 2.20603C100.812 2.79789 101.991 3.71259 102.965 4.89631C103.786 5.86482 104.401 6.94093 104.863 8.17847C105.324 9.36219 105.58 10.7073 105.58 12.2677C105.58 14.0971 105.119 15.9265 104.247 17.7021C103.376 19.4777 101.888 20.7152 99.8886 21.4685C101.581 22.168 102.811 23.1903 103.529 24.5354C104.247 25.8806 104.606 27.8714 104.606 30.6155V33.1982C104.606 34.9737 104.657 36.1575 104.811 36.8031C105.016 37.8255 105.478 38.5249 106.196 39.0092V39.9777H97.6837C97.4273 39.1168 97.2735 38.4173 97.1709 37.8793C96.9658 36.8031 96.8633 35.6732 96.8633 34.5433V30.9383C96.7607 28.4632 96.3505 26.8491 95.53 25.9882C94.7096 25.1811 93.1713 24.7506 90.8638 24.7506V24.6968ZM95.53 17.6483C97.0684 16.895 97.8375 15.4422 97.8375 13.29C97.8375 10.9226 97.1196 9.36219 95.6326 8.55511C94.8121 8.12466 93.5302 7.85563 91.8893 7.85563H82.9157V18.2401H91.6329C93.3764 18.2401 94.6583 18.0249 95.53 17.5945V17.6483Z" fill="#1D1D1B"/>
<path d="M136.912 38.9554C134.86 40.2467 132.348 40.9462 129.425 40.9462C124.554 40.9462 120.503 39.1706 117.426 35.6194C114.196 32.0683 112.555 27.1719 112.555 20.9843C112.555 14.7966 114.196 9.68506 117.477 5.91866C120.759 2.15225 125.066 0.161438 130.502 0.161438C135.168 0.161438 138.963 1.39897 141.783 3.92784C144.603 6.45671 146.244 9.52364 146.654 13.29H139.065C138.501 10.6536 137.065 8.82417 134.809 7.74805C133.527 7.15619 132.143 6.88716 130.553 6.88716C127.579 6.88716 125.118 8.07089 123.22 10.4383C121.323 12.8058 120.349 16.357 120.349 21.0919C120.349 25.8268 121.374 29.2166 123.477 31.2074C125.528 33.1982 127.887 34.1667 130.553 34.1667C133.22 34.1667 135.271 33.3596 136.912 31.7992C138.552 30.2389 139.578 28.1942 139.988 25.6116H131.425V19.1549H146.808V39.9239H141.68L140.911 35.0814C139.424 36.9108 138.091 38.2021 136.912 38.9554V38.9554Z" fill="#1D1D1B"/>
<path d="M179.215 40.8386C175.472 40.8386 172.549 39.7087 170.447 37.395C168.344 35.0814 167.268 32.4987 167.268 29.7008C167.268 27.3871 167.832 25.3963 168.908 23.7284C169.985 22.0604 171.831 20.3924 174.293 18.7782L175.062 18.294C173.985 17.0564 173.165 15.7651 172.6 14.42C172.036 13.0748 171.729 11.7297 171.729 10.3307C171.729 7.53282 172.652 5.32678 174.446 3.71261C176.241 2.15224 178.6 1.34515 181.471 1.34515C184.087 1.34515 186.24 2.15224 187.984 3.76641C189.676 5.38059 190.548 7.47901 190.548 9.95408C190.548 12.2139 190.035 14.0971 189.009 15.4961C187.984 16.895 186.497 18.2402 184.497 19.4239L189.727 26.2034C190.343 25.2887 190.804 24.3202 191.112 23.2441C191.419 22.168 191.624 21.0381 191.624 19.8543H197.983C197.88 22.2218 197.368 24.5893 196.393 26.9567C195.88 28.3018 195.009 29.8084 193.778 31.4226L200.495 39.8701H191.83L189.266 36.5879C188.035 37.7717 186.856 38.6864 185.83 39.2782C183.933 40.3005 181.728 40.8386 179.267 40.8386H179.215ZM178.805 23.0289C177.01 24.2664 175.831 25.3425 175.267 26.311C174.703 27.2795 174.395 28.3018 174.395 29.4318C174.395 30.7231 174.908 31.9068 175.882 32.9291C176.856 34.0053 178.138 34.5433 179.677 34.5433C180.856 34.5433 181.933 34.2743 183.01 33.6824C184.035 33.0906 184.907 32.4987 185.574 31.7992L178.805 23.0289V23.0289ZM178.344 10.0079C178.344 10.7074 178.6 11.4606 179.061 12.2139C179.369 12.6982 180.036 13.6129 181.01 14.9042C182.036 14.1509 182.753 13.5591 183.164 13.021C183.984 12.0525 184.394 11.0302 184.394 9.95408C184.394 9.14699 184.138 8.44752 183.625 7.80185C183.112 7.15618 182.343 6.83334 181.369 6.83334C180.754 6.83334 180.138 6.99476 179.574 7.3714C178.754 7.90946 178.344 8.77035 178.344 9.95408V10.0079Z" fill="#1D1D1B"/>
<path d="M233.826 24.6968H225.878V39.8701H218.34V1.18372H236.441C239.005 1.18372 241.005 1.56036 242.389 2.20603C243.774 2.79789 244.953 3.71259 245.927 4.89631C246.748 5.86482 247.363 6.94093 247.824 8.17847C248.286 9.36219 248.542 10.7073 248.542 12.2677C248.542 14.0971 248.081 15.9265 247.209 17.7021C246.337 19.4777 244.85 20.7152 242.851 21.4685C244.543 22.168 245.773 23.1903 246.491 24.5354C247.209 25.8806 247.568 27.8714 247.568 30.6155V33.1982C247.568 34.9737 247.619 36.1575 247.773 36.8031C247.978 37.8255 248.44 38.5249 249.158 39.0092V39.9777H240.646C240.389 39.1168 240.235 38.4173 240.133 37.8793C239.928 36.8031 239.825 35.6732 239.825 34.5433V30.9383C239.723 28.4632 239.312 26.8491 238.492 25.9882C237.671 25.1811 236.133 24.7506 233.826 24.7506V24.6968ZM238.492 17.6483C240.03 16.895 240.799 15.4422 240.799 13.29C240.799 10.9226 240.03 9.36219 238.594 8.55511C237.774 8.12466 236.492 7.85563 234.851 7.85563H225.878V18.2401H234.595C236.338 18.2401 237.62 18.0249 238.492 17.5945V17.6483Z" fill="#1D1D1B"/>
<path d="M256.645 1.18372H264.285V39.9239H256.645V1.18372Z" fill="#1D1D1B"/>
<path d="M289.462 39.9239H273.566V1.18372H289.462C291.77 1.18372 293.667 1.50655 295.154 2.04461C297.718 2.95931 299.821 4.57348 301.461 6.94093C302.743 8.87794 303.615 10.9764 304.077 13.1824C304.538 15.4422 304.794 17.5407 304.794 19.5853C304.794 24.7506 303.82 29.1089 301.82 32.6601C299.154 37.5026 295.052 39.8701 289.462 39.8701V39.9239ZM295.206 11.084C294.026 8.98555 291.667 7.90944 288.181 7.90944H281.053V33.1982H288.181C291.821 33.1982 294.334 31.3149 295.77 27.5485C296.539 25.5039 296.949 23.0289 296.949 20.1772C296.949 16.2493 296.385 13.1824 295.206 11.084V11.084Z" fill="#1D1D1B"/>
<path d="M335.253 38.9554C333.202 40.2467 330.69 40.9462 327.767 40.9462C322.895 40.9462 318.845 39.1706 315.768 35.6194C312.537 32.0683 310.896 27.1719 310.896 20.9843C310.896 14.7966 312.537 9.68505 315.819 5.91865C319.101 2.15225 323.459 0.269043 328.844 0.269043C333.51 0.269043 337.304 1.50658 340.125 4.03545C342.945 6.51051 344.586 9.63125 344.996 13.3977H337.407C336.843 10.7612 335.407 8.93177 333.151 7.85566C331.869 7.26379 330.485 6.99476 328.895 6.99476C325.921 6.99476 323.459 8.17849 321.562 10.5459C319.665 12.9134 318.691 16.4646 318.691 21.1995C318.691 25.9344 319.716 29.3242 321.819 31.315C323.87 33.3058 326.228 34.2743 328.895 34.2743C331.561 34.2743 333.612 33.4672 335.253 31.9068C336.894 30.3465 337.92 28.3019 338.33 25.7192H329.767V19.2625H345.15V40.0315H340.022L339.253 35.189C337.766 37.0184 336.433 38.3097 335.253 39.063V38.9554Z" fill="#1D1D1B"/>
<path d="M380.275 22.9751H362.328V32.9291H382.736V39.8701H354.79V1.18372H381.865V8.01705H362.328V16.2493H380.275V22.9751Z" fill="#1D1D1B"/>
<path d="M426.168 38.9554C424.117 40.2467 421.605 40.9462 418.682 40.9462C413.81 40.9462 409.76 39.1706 406.683 35.6194C403.452 32.0683 401.812 27.1719 401.812 20.9843C401.812 14.7966 403.452 9.68505 406.734 5.91865C410.016 2.15225 414.375 0.269043 419.759 0.269043C424.425 0.269043 428.219 1.50658 431.04 4.03545C433.86 6.51051 435.501 9.63125 435.911 13.3977H428.322C427.758 10.7612 426.322 8.93177 424.066 7.85566C422.784 7.26379 421.4 6.99476 419.81 6.99476C416.836 6.99476 414.375 8.17849 412.477 10.5459C410.58 12.9134 409.606 16.4646 409.606 21.1995C409.606 25.9344 410.631 29.3242 412.734 31.315C414.785 33.3058 417.144 34.2743 419.81 34.2743C422.476 34.2743 424.528 33.4672 426.168 31.9068C427.809 30.3465 428.835 28.3019 429.245 25.7192H420.682V19.2625H436.065V40.0315H430.937L430.168 35.189C428.681 37.0184 427.348 38.3097 426.168 39.063V38.9554Z" fill="#1D1D1B"/>
<path d="M461.14 24.6968H453.192V39.8701H445.654V1.18372H463.755C466.319 1.18372 468.319 1.56036 469.703 2.20603C471.088 2.79789 472.267 3.71259 473.242 4.89631C474.062 5.86482 474.677 6.94093 475.139 8.17847C475.6 9.36219 475.857 10.7073 475.857 12.2677C475.857 14.0971 475.395 15.9265 474.524 17.7021C473.652 19.4777 472.165 20.7152 470.165 21.4685C471.857 22.168 473.088 23.1903 473.806 24.5354C474.524 25.8806 474.883 27.8714 474.883 30.6155V33.1982C474.883 34.9737 474.934 36.1575 475.088 36.8031C475.293 37.8255 475.754 38.5249 476.472 39.0092V39.9777H467.96C467.704 39.1168 467.55 38.4173 467.447 37.8793C467.242 36.8031 467.14 35.6732 467.14 34.5433V30.9383C467.037 28.4632 466.627 26.8491 465.806 25.9882C464.986 25.1811 463.448 24.7506 461.14 24.7506V24.6968ZM465.806 17.6483C467.345 16.895 468.114 15.4422 468.114 13.29C468.114 10.9226 467.396 9.36219 465.909 8.55511C465.089 8.12466 463.807 7.85563 462.166 7.85563H453.192V18.2401H461.909C463.653 18.2401 464.935 18.0249 465.806 17.5945V17.6483Z" fill="#1D1D1B"/>
<path d="M500.88 41C495.599 41 491.599 39.4934 488.779 36.4803C485.035 32.7677 483.189 27.4409 483.189 20.5C483.189 13.5591 485.035 8.07087 488.779 4.51969C491.548 1.50656 495.599 0 500.88 0C506.162 0 510.161 1.50656 512.982 4.51969C516.725 8.07087 518.571 13.3976 518.571 20.5C518.571 27.6024 516.725 32.7677 512.982 36.4803C510.213 39.4934 506.162 41 500.88 41ZM508.162 30.6155C509.956 28.248 510.828 24.9121 510.828 20.5C510.828 16.0879 509.905 12.8058 508.162 10.4383C506.367 8.07087 503.957 6.88714 500.88 6.88714C497.804 6.88714 495.394 8.07087 493.548 10.4383C491.702 12.8058 490.83 16.1417 490.83 20.5538C490.83 24.9659 491.753 28.3018 493.548 30.6693C495.342 33.0367 497.804 34.2205 500.88 34.2205C503.957 34.2205 506.367 33.0367 508.162 30.6693V30.6155Z" fill="#1D1D1B"/>
<path d="M548.312 24.9659V1.18372H556.158V24.9659C556.158 29.1089 555.542 32.2835 554.312 34.5971C552.055 38.7939 547.697 40.8924 541.338 40.8924C534.98 40.8924 530.621 38.7939 528.314 34.5971C527.083 32.2835 526.468 29.1089 526.468 24.9659V1.18372H534.313V24.9659C534.313 27.6023 534.621 29.5932 535.236 30.7769C536.159 32.9291 538.21 34.059 541.338 34.059C544.466 34.059 546.466 32.9829 547.44 30.7769C548.056 29.5394 548.363 27.6023 548.363 24.9659H548.312Z" fill="#1D1D1B"/>
<path d="M581.232 25.9882H573.386V39.9239H565.746V1.18372H581.796C585.488 1.18372 588.462 2.20603 590.667 4.19684C592.872 6.18765 593.949 9.30839 593.949 13.4514C593.949 18.0249 592.872 21.2533 590.667 23.1365C588.462 25.0197 585.334 25.9882 581.232 25.9882ZM584.821 17.9173C585.847 17.0026 586.308 15.4961 586.308 13.5052C586.308 11.5144 585.796 10.0617 584.77 9.20078C583.745 8.33988 582.36 7.90944 580.514 7.90944H573.335V19.3163H580.514C582.309 19.3163 583.745 18.832 584.77 17.9173H584.821Z" fill="#1D1D1B"/>
</g>
<defs>
<clipPath id="clip0_212_5176">
<rect width="594" height="41" fill="white"/>
</clipPath>
</defs>
</svg>
