<svg width="264" height="18" viewBox="0 0 264 18" fill="none" xmlns="http://www.w3.org/2000/svg">
<path d="M7.70837 17.5269H0V0.519231H8.26226C10.3471 0.55 11.8241 1.15385 12.6934 2.33077C13.2165 3.05385 13.4781 3.91923 13.4781 4.92692C13.4781 5.96539 13.2165 6.8 12.6934 7.43077C12.4011 7.78462 11.9703 8.10769 11.401 8.4C12.2703 8.71538 12.9242 9.21539 13.3627 9.9C13.8089 10.5846 14.032 11.4154 14.032 12.3923C14.032 13.4 13.7781 14.3038 13.2704 15.1038C12.9473 15.6346 12.5434 16.0808 12.0587 16.4423C11.5125 16.8577 10.8663 17.1423 10.1201 17.2962C9.38159 17.45 8.57767 17.5269 7.70837 17.5269ZM7.62759 10.0385H3.3926V14.5731H7.56989C8.31611 14.5731 8.89693 14.4731 9.31235 14.2731C10.0663 13.9038 10.4432 13.1962 10.4432 12.15C10.4432 11.2654 10.0778 10.6577 9.34697 10.3269C8.93924 10.1423 8.36611 10.0462 7.62759 10.0385ZM9.39313 6.79615C9.85471 6.51923 10.0855 6.02308 10.0855 5.30769C10.0855 4.51538 9.77778 3.99231 9.16234 3.73846C8.63152 3.56154 7.95454 3.47308 7.13139 3.47308H3.3926V7.22308H7.56989C8.31611 7.22308 8.92386 7.08077 9.39313 6.79615Z" fill="#6C6C6C"/>
<path d="M28.8602 10.0962H20.5979V14.4692H30.0142V17.5269H17.1246V0.519231H29.5987V3.53077H20.5979V7.14231H28.8602V10.0962Z" fill="#6C6C6C"/>
<path d="M40.0073 10.8577H36.3378V17.5269H32.8644V0.519231H41.2074C42.3999 0.542308 43.3153 0.688462 43.9538 0.957692C44.6 1.22692 45.1462 1.62308 45.5924 2.14615C45.9617 2.57692 46.254 3.05385 46.4694 3.57692C46.6848 4.1 46.7925 4.69615 46.7925 5.36538C46.7925 6.17308 46.5887 6.96923 46.181 7.75385C45.7732 8.53077 45.1001 9.08077 44.1615 9.40385C44.9462 9.71923 45.5001 10.1692 45.8232 10.7538C46.154 11.3308 46.3194 12.2154 46.3194 13.4077V14.55C46.3194 15.3269 46.3502 15.8538 46.4117 16.1308C46.5041 16.5692 46.7195 16.8923 47.058 17.1V17.5269H43.1461C43.0384 17.15 42.9614 16.8462 42.9153 16.6154C42.823 16.1385 42.773 15.65 42.7653 15.15L42.7422 13.5692C42.7268 12.4846 42.5268 11.7615 42.1421 11.4C41.7652 11.0385 41.0536 10.8577 40.0073 10.8577ZM42.1652 7.76538C42.873 7.44231 43.2269 6.80385 43.2269 5.85C43.2269 4.81923 42.8845 4.12692 42.1998 3.77308C41.8152 3.57308 41.2382 3.47308 40.4689 3.47308H36.3378V8.04231H40.3651C41.1651 8.04231 41.7652 7.95 42.1652 7.76538Z" fill="#6C6C6C"/>
<path d="M60.2937 17.1115C59.3552 17.6885 58.2012 17.9769 56.8319 17.9769C54.5778 17.9769 52.7315 17.1962 51.2929 15.6346C49.7928 14.0654 49.0427 11.9192 49.0427 9.19615C49.0427 6.44231 49.8005 4.23462 51.316 2.57308C52.8315 0.911538 54.8356 0.0807694 57.3281 0.0807694C59.4898 0.0807694 61.2246 0.630769 62.5324 1.73077C63.8479 2.82308 64.6018 4.18846 64.7941 5.82692H61.2977C61.0284 4.66538 60.3707 3.85385 59.3244 3.39231C58.7397 3.13846 58.0897 3.01154 57.3742 3.01154C56.0049 3.01154 54.8779 3.53077 53.9932 4.56923C53.1162 5.6 52.6777 7.15385 52.6777 9.23077C52.6777 11.3231 53.1546 12.8038 54.1086 13.6731C55.0625 14.5423 56.1472 14.9769 57.3627 14.9769C58.5551 14.9769 59.5321 14.6346 60.2937 13.95C61.0553 13.2577 61.5246 12.3538 61.7015 11.2385H57.7666V8.4H64.8518V17.5269H62.4978L62.14 15.4038C61.4554 16.2115 60.8399 16.7808 60.2937 17.1115Z" fill="#6C6C6C"/>
<path d="M79.807 17.9423C78.0837 17.9423 76.7375 17.4346 75.7682 16.4192C74.7988 15.4038 74.3142 14.2769 74.3142 13.0385C74.3142 12.0154 74.568 11.1385 75.0758 10.4077C75.5835 9.67692 76.4144 8.95385 77.5683 8.23846L77.926 8.01923C77.4337 7.46538 77.0529 6.9 76.7836 6.32308C76.5144 5.74615 76.3797 5.14615 76.3797 4.52308C76.3797 3.28462 76.7952 2.31923 77.626 1.62692C78.4568 0.926923 79.5339 0.576923 80.8571 0.576923C82.0649 0.576923 83.0611 0.934616 83.8458 1.65C84.6382 2.35769 85.0343 3.26539 85.0343 4.37308C85.0343 5.37308 84.7959 6.18462 84.3189 6.80769C83.8496 7.43077 83.1573 8.00769 82.2418 8.53846L84.6535 11.5154C84.9305 11.1154 85.142 10.6808 85.2882 10.2115C85.4421 9.74231 85.5229 9.24615 85.5305 8.72308H88.45C88.4039 9.75385 88.1577 10.7962 87.7115 11.85C87.4653 12.4423 87.0653 13.0962 86.5114 13.8115L89.604 17.5269H85.6113L84.4343 16.0846C83.865 16.6154 83.3342 17.0077 82.8418 17.2615C81.9648 17.7154 80.9532 17.9423 79.807 17.9423ZM79.6223 10.1192C78.7992 10.6654 78.253 11.1462 77.9837 11.5615C77.7222 11.9769 77.5914 12.4346 77.5914 12.9346C77.5914 13.4962 77.8183 14.0115 78.2722 14.4808C78.7338 14.95 79.3223 15.1846 80.0378 15.1846C80.5763 15.1846 81.084 15.0615 81.561 14.8154C82.0456 14.5615 82.438 14.2808 82.738 13.9731L79.6223 10.1192ZM79.4031 4.40769C79.4031 4.71539 79.5108 5.03846 79.7262 5.37692C79.8647 5.6 80.1647 5.99615 80.6263 6.56538C81.0878 6.24231 81.4187 5.96923 81.6187 5.74615C82.0033 5.33077 82.1956 4.88077 82.1956 4.39615C82.1956 4.04231 82.0802 3.72692 81.8495 3.45C81.6187 3.17308 81.2686 3.03462 80.7994 3.03462C80.507 3.03462 80.2339 3.11538 79.9801 3.27692C79.5954 3.51538 79.4031 3.89231 79.4031 4.40769Z" fill="#6C6C6C"/>
<path d="M105.713 10.8577H102.044V17.5269H98.5701V0.519231H106.913C108.106 0.542308 109.021 0.688462 109.66 0.957692C110.306 1.22692 110.852 1.62308 111.298 2.14615C111.667 2.57692 111.96 3.05385 112.175 3.57692C112.391 4.1 112.498 4.69615 112.498 5.36538C112.498 6.17308 112.294 6.96923 111.887 7.75385C111.479 8.53077 110.806 9.08077 109.867 9.40385C110.652 9.71923 111.206 10.1692 111.529 10.7538C111.86 11.3308 112.025 12.2154 112.025 13.4077V14.55C112.025 15.3269 112.056 15.8538 112.117 16.1308C112.21 16.5692 112.425 16.8923 112.764 17.1V17.5269H108.852C108.744 17.15 108.667 16.8462 108.621 16.6154C108.529 16.1385 108.479 15.65 108.471 15.15L108.448 13.5692C108.433 12.4846 108.233 11.7615 107.848 11.4C107.471 11.0385 106.759 10.8577 105.713 10.8577ZM107.871 7.76538C108.579 7.44231 108.933 6.80385 108.933 5.85C108.933 4.81923 108.59 4.12692 107.906 3.77308C107.521 3.57308 106.944 3.47308 106.175 3.47308H102.044V8.04231H106.071C106.871 8.04231 107.471 7.95 107.871 7.76538Z" fill="#6C6C6C"/>
<path d="M115.291 0.519231H118.822V17.5269H115.291V0.519231Z" fill="#6C6C6C"/>
<path d="M129.473 17.5269H122.145V0.519231H129.473C130.527 0.534616 131.404 0.657692 132.104 0.888462C133.296 1.28077 134.262 2 135 3.04615C135.593 3.89231 135.996 4.80769 136.212 5.79231C136.427 6.77692 136.535 7.71539 136.535 8.60769C136.535 10.8692 136.081 12.7846 135.173 14.3538C133.942 16.4692 132.042 17.5269 129.473 17.5269ZM132.115 4.85769C131.569 3.93462 130.488 3.47308 128.873 3.47308H125.596V14.5731H128.873C130.55 14.5731 131.719 13.7462 132.381 12.0923C132.742 11.1846 132.923 10.1038 132.923 8.85C132.923 7.11923 132.654 5.78846 132.115 4.85769Z" fill="#6C6C6C"/>
<path d="M149.655 17.1115C148.717 17.6885 147.563 17.9769 146.194 17.9769C143.939 17.9769 142.093 17.1962 140.655 15.6346C139.154 14.0654 138.404 11.9192 138.404 9.19615C138.404 6.44231 139.162 4.23462 140.678 2.57308C142.193 0.911538 144.197 0.0807694 146.69 0.0807694C148.851 0.0807694 150.586 0.630769 151.894 1.73077C153.21 2.82308 153.963 4.18846 154.156 5.82692H150.659C150.39 4.66538 149.732 3.85385 148.686 3.39231C148.101 3.13846 147.451 3.01154 146.736 3.01154C145.367 3.01154 144.24 3.53077 143.355 4.56923C142.478 5.6 142.039 7.15385 142.039 9.23077C142.039 11.3231 142.516 12.8038 143.47 13.6731C144.424 14.5423 145.509 14.9769 146.724 14.9769C147.917 14.9769 148.894 14.6346 149.655 13.95C150.417 13.2577 150.886 12.3538 151.063 11.2385H147.128V8.4H154.213V17.5269H151.859L151.502 15.4038C150.817 16.2115 150.202 16.7808 149.655 17.1115Z" fill="#6C6C6C"/>
<path d="M169.457 10.0962H161.195V14.4692H170.611V17.5269H157.721V0.519231H170.196V3.53077H161.195V7.14231H169.457V10.0962Z" fill="#6C6C6C"/>
<path d="M190.39 17.1115C189.451 17.6885 188.297 17.9769 186.928 17.9769C184.674 17.9769 182.828 17.1962 181.389 15.6346C179.889 14.0654 179.139 11.9192 179.139 9.19615C179.139 6.44231 179.896 4.23462 181.412 2.57308C182.928 0.911538 184.932 0.0807694 187.424 0.0807694C189.586 0.0807694 191.321 0.630769 192.628 1.73077C193.944 2.82308 194.698 4.18846 194.89 5.82692H191.394C191.124 4.66538 190.467 3.85385 189.42 3.39231C188.836 3.13846 188.186 3.01154 187.47 3.01154C186.101 3.01154 184.974 3.53077 184.089 4.56923C183.212 5.6 182.774 7.15385 182.774 9.23077C182.774 11.3231 183.251 12.8038 184.205 13.6731C185.158 14.5423 186.243 14.9769 187.459 14.9769C188.651 14.9769 189.628 14.6346 190.39 13.95C191.151 13.2577 191.621 12.3538 191.798 11.2385H187.863V8.4H194.948V17.5269H192.594L192.236 15.4038C191.551 16.2115 190.936 16.7808 190.39 17.1115Z" fill="#6C6C6C"/>
<path d="M205.576 10.8577H201.906V17.5269H198.433V0.519231H206.776C207.968 0.542308 208.884 0.688462 209.522 0.957692C210.168 1.22692 210.715 1.62308 211.161 2.14615C211.53 2.57692 211.822 3.05385 212.038 3.57692C212.253 4.1 212.361 4.69615 212.361 5.36538C212.361 6.17308 212.157 6.96923 211.749 7.75385C211.342 8.53077 210.668 9.08077 209.73 9.40385C210.515 9.71923 211.068 10.1692 211.392 10.7538C211.722 11.3308 211.888 12.2154 211.888 13.4077V14.55C211.888 15.3269 211.919 15.8538 211.98 16.1308C212.072 16.5692 212.288 16.8923 212.626 17.1V17.5269H208.714C208.607 17.15 208.53 16.8462 208.484 16.6154C208.391 16.1385 208.341 15.65 208.334 15.15L208.311 13.5692C208.295 12.4846 208.095 11.7615 207.71 11.4C207.333 11.0385 206.622 10.8577 205.576 10.8577ZM207.734 7.76538C208.441 7.44231 208.795 6.80385 208.795 5.85C208.795 4.81923 208.453 4.12692 207.768 3.77308C207.383 3.57308 206.807 3.47308 206.037 3.47308H201.906V8.04231H205.933C206.733 8.04231 207.334 7.95 207.734 7.76538Z" fill="#6C6C6C"/>
<path d="M222.954 18C220.523 18 218.665 17.3385 217.381 16.0154C215.657 14.3923 214.796 12.0538 214.796 9C214.796 5.88462 215.657 3.54615 217.381 1.98462C218.665 0.661539 220.523 0 222.954 0C225.385 0 227.243 0.661539 228.528 1.98462C230.243 3.54615 231.101 5.88462 231.101 9C231.101 12.0538 230.243 14.3923 228.528 16.0154C227.243 17.3385 225.385 18 222.954 18ZM226.312 13.4308C227.135 12.3923 227.547 10.9154 227.547 9C227.547 7.09231 227.131 5.61923 226.301 4.58077C225.477 3.53462 224.362 3.01154 222.954 3.01154C221.546 3.01154 220.423 3.53077 219.585 4.56923C218.746 5.60769 218.327 7.08462 218.327 9C218.327 10.9154 218.746 12.3923 219.585 13.4308C220.423 14.4692 221.546 14.9885 222.954 14.9885C224.362 14.9885 225.481 14.4692 226.312 13.4308Z" fill="#6C6C6C"/>
<path d="M243.887 10.9731V0.519231H247.499V10.9731C247.499 12.7808 247.218 14.1885 246.656 15.1962C245.61 17.0423 243.614 17.9654 240.667 17.9654C237.721 17.9654 235.721 17.0423 234.667 15.1962C234.105 14.1885 233.824 12.7808 233.824 10.9731V0.519231H237.436V10.9731C237.436 12.1423 237.575 12.9962 237.852 13.5346C238.282 14.4885 239.221 14.9654 240.667 14.9654C242.106 14.9654 243.04 14.4885 243.471 13.5346C243.748 12.9962 243.887 12.1423 243.887 10.9731Z" fill="#6C6C6C"/>
<path d="M258.126 11.4115H254.515V17.5269H250.983V0.519231H258.392C260.1 0.519231 261.461 0.957692 262.477 1.83462C263.492 2.71154 264 4.06923 264 5.90769C264 7.91539 263.492 9.33461 262.477 10.1654C261.461 10.9962 260.011 11.4115 258.126 11.4115ZM259.788 7.86923C260.25 7.46154 260.48 6.81538 260.48 5.93077C260.48 5.04615 260.246 4.41538 259.777 4.03846C259.315 3.66154 258.665 3.47308 257.826 3.47308H254.515V8.48077H257.826C258.665 8.48077 259.319 8.27692 259.788 7.86923Z" fill="#6C6C6C"/>
</svg>
