<?xml version="1.0" encoding="utf-8"?>
<!-- Generator: Adobe Illustrator 26.3.1, SVG Export Plug-In . SVG Version: 6.00 Build 0)  -->
<svg version="1.1" id="Layer_1" xmlns="http://www.w3.org/2000/svg" xmlns:xlink="http://www.w3.org/1999/xlink" x="0px" y="0px"
	 viewBox="0 0 1 561.72" style="enable-background:new 0 0 1 561.72;" xml:space="preserve">
<g>
	<g>
		<path d="M0,4.29c0.02,0.12,0.05-0.65,0.08-0.8L0.05,2.05C0.04,2.79,0.03,4.19,0,4.29z"/>
		<path d="M0.07,3.49l0.03,2.15C0.11,3.72,0.1,3.37,0.07,3.49z"/>
		<polygon points="-0.01,12.49 -0.05,11.27 0.02,13.44 		"/>
		<path d="M0,17.94c-0.04-0.9-0.06,1.24-0.09,0.28c0.01,1.48,0.04,2.74,0.07,3.88C-0.03,20.89-0.03,19.6,0,17.94z"/>
		<path d="M0.03,24C0.01,23.41,0,22.78-0.02,22.1C-0.01,22.74,0.01,23.37,0.03,24z"/>
		<path d="M0.1,9.3c-0.01,0.17-0.04,0.49-0.06,1.69l0.06-0.84C0.1,9.88,0.1,9.59,0.1,9.3z"/>
		<path d="M0.1,10.11l0,0.03c0,0.92,0,1.55,0,1.83C0.1,11.73,0.1,11.18,0.1,10.11z"/>
		<path d="M0.1,9.08c0,0.08,0,0.14,0,0.21C0.1,9.22,0.11,9.17,0.1,9.08z"/>
		<path d="M0.17,0C0.2,1.26,0.23,3.89,0.28,1.35C0.24,0.44,0.21,1.9,0.17,0z"/>
		<path d="M0.17,8.03l0.01-2.28C0.17,5.8,0.15,6.21,0.13,5.58L0.17,8.03z"/>
		<polygon points="0.19,9.15 0.17,8.03 0.16,8.88 		"/>
		<path d="M0.08,20.09c0.02,0.99,0.03,2.06,0.03,3.28c0.01-1.31,0.01-2.66,0.02-3.94C0.11,19.26,0.08,18.7,0.08,20.09z"/>
		<path d="M0.09,15.24c0,0.07,0,0.15,0,0.22C0.1,15.33,0.1,15.22,0.09,15.24z"/>
		<path d="M0.11,35.37c0-0.07,0.01-0.13,0.01-0.19l-0.01-0.04L0.11,35.37z"/>
		<path d="M0.14,19.22c0.01-0.98,0-1.57-0.02-2.13c0,0.73,0.01,1.51,0.01,2.35C0.13,19.52,0.14,19.54,0.14,19.22z"/>
		<path d="M0.05,27.35c0.01-0.51,0.02-1.09,0.03-1.7C0.07,26.15,0.04,27.17,0.05,27.35z"/>
		<path d="M0.08,15.79c0-0.05,0-0.09,0-0.15C0.07,15.97,0.07,15.93,0.08,15.79z"/>
		<path d="M0.08,15.79c0.01,0.5,0.02,0.9,0.03,1.3c-0.01-0.6-0.01-1.15-0.02-1.63C0.09,15.58,0.09,15.7,0.08,15.79z"/>
		<path d="M0.46,39c-0.05-0.17-0.1-2.75-0.04-4.98c-0.04-2.19-0.21-0.76-0.3,1.15c0.02,0.07,0.04,0.07,0.07,2.32
			c0.03-0.79,0.07-5,0.11-3.1c0.03,2.99-0.02,2.45-0.05,3.9c0.06-1.23,0.09,3.8,0.19,3.15l-0.03-2.62C0.43,38.78,0.45,39.73,0.46,39
			z"/>
		<path d="M0.12,30.88l-0.01-0.93c-0.01,1.06-0.03,1.82-0.07,3.21c0.03,1.54,0.04,1.86,0.06,1.97l0.01-4.57L0.12,30.88z"/>
		<path d="M0.12,25.78c0.06,0.72,0.08,2.95,0.14,1.59c0-2.72-0.05-1.91-0.07-3.53c0.01,4.39-0.03-1.26-0.06,1.91
			c-0.01-0.87-0.01-1.64-0.01-2.37c-0.01,0.79-0.02,1.55-0.03,2.27c0-0.04,0-0.07,0-0.1l0-0.02l0,0c0.01-0.19,0.01-0.25,0.01-0.04
			c0,0.02,0,0.07,0,0.09C0.1,25.62,0.11,25.7,0.12,25.78c-0.01,1.27-0.01,0.2-0.02-0.2c0-0.01-0.01-0.05-0.01-0.05
			c0,0,0,0.01,0,0.02l0.03,4.4C0.12,29.02,0.12,27.85,0.12,25.78z"/>
		<path d="M0.4,3.7c0,0.14-0.01,0.13-0.01,0.14C0.39,4.12,0.4,4.23,0.4,3.7z"/>
		<path d="M0.36,5.51C0.36,5.19,0.33,4.92,0.34,3.88c0.02-0.9,0.03,0,0.05-0.04C0.37,3.21,0.34,1.64,0.32,3.61l0.01,0.31
			C0.3,5.69,0.24,7.97,0.23,7.66C0.28,7.14,0.31,6.69,0.36,5.51z"/>
		<path d="M0.25,15.77l0.03,3.67l0.05-1.87L0.3,17.66C0.31,15.58,0.28,16.03,0.25,15.77z"/>
		<polygon points="0.08,35.79 0.02,35.3 0.1,37.42 		"/>
		<polygon points="0.09,40.55 0.04,40.37 0.07,41.63 		"/>
		<path d="M0.72,309.35l0.01,1.08C0.73,309.92,0.73,309.59,0.72,309.35z"/>
		<path d="M0.73,301.55l-0.03-0.19C0.72,301.72,0.73,301.87,0.73,301.55z"/>
		<path d="M0.09,157.54c-0.05,1.57-0.12,3.32-0.06,3.13l0.06-0.48C0.07,159.09,0.08,158.25,0.09,157.54z"/>
		<path d="M0.43,237.66c0.01-0.15,0.01-0.3,0.02-0.46c-0.02-0.38-0.04-0.74-0.05-1.06C0.4,236.59,0.42,237.11,0.43,237.66z"/>
		<path d="M0.66,238.76l-0.04,2.07C0.63,240.36,0.64,239.7,0.66,238.76z"/>
		<path d="M0.78,351.94l0.06,1.26C0.84,351.23,0.81,352.09,0.78,351.94z"/>
		<path d="M0.11,89.34c-0.02,1.35-0.03,2.43-0.03,3.38C0.11,91.08,0.15,89.77,0.11,89.34z"/>
		<path d="M0.13,306.28c0.01,0.66,0.02,0.94,0.03,0.92C0.15,306.52,0.14,306.14,0.13,306.28z"/>
		<path d="M0.07,96.62c0-0.24,0.01-0.47,0.01-0.72c-0.01-0.99-0.02-1.99-0.01-3.19C0.05,93.92,0.04,95.3,0.07,96.62z"/>
		<path d="M0.74,506.38c0,0.11,0,0.25-0.01,0.35C0.74,506.77,0.74,506.61,0.74,506.38z"/>
		<path d="M0.17,551.38c0-0.44,0-1.17,0-1.85C0.16,549.86,0.16,550.42,0.17,551.38z"/>
		<path d="M0.06,59.72C0.06,58.71,0.06,59.56,0.06,59.72L0.06,59.72z"/>
		<path d="M0.28,54.8c0.01,0.21,0.01,0.38,0.03,0.4C0.3,55.12,0.29,54.98,0.28,54.8z"/>
		<path d="M0.42,106.69c0,0.03,0,0.05,0,0.09C0.43,106.47,0.43,106.53,0.42,106.69z"/>
		<path d="M0.09,58.2c0,0.38-0.01,0.82-0.02,1.29C0.07,59.28,0.08,58.88,0.09,58.2z"/>
		<path d="M0.06,58.4c0-0.35,0-0.62,0.01-0.88C0.06,57.39,0.05,57.5,0.06,58.4z"/>
		<path d="M0.07,61.12c0-0.58,0-1.12,0.01-1.64c0,0.2-0.01,0.28-0.01,0.23C0.06,60.01,0.06,60.43,0.07,61.12z"/>
		<path d="M0.59,423.63c0,0.07,0,0.14-0.01,0.22C0.6,424.87,0.6,424.42,0.59,423.63z"/>
		<path d="M0.68,183.83c0-0.05,0-0.07,0-0.12c0,0.05,0,0.11,0,0.15L0.68,183.83z"/>
		<path d="M0.72,187.46c-0.07-1.55-0.06-2.42-0.05-3.59l-0.16,1.2L0.72,187.46z"/>
		<path d="M0.74,328.02l0.05-2.55c0.08,3.08,0.05,5.3,0.13,2.91c-0.18-0.36-0.02-9.9-0.19-10.26l0.04-1.68c0,0.48,0,0.56,0.01,1.03
			c0.08-3.27-0.13-2.43-0.1-6.64c0.01-1.47,0.04-2.49,0.06-1.49l-0.04-3.27c0-0.95,0.03-0.72,0.03,0.23l-0.01-4.99l0.01,0.04
			c-0.02-0.73-0.07-2.33-0.09-3.11c0.03-1.27,0.02,0.64,0.04,0.31l-0.04-2.76c0.05-1.12,0.09,1.16,0.08,3.07
			c0.18-2.58-0.04-2.29,0.06-7.85l0.02,2.61c0.1-1.68,0.06-3.71,0.13-6.66c-0.03,0.7-0.16,5.9-0.2,2.9
			c0.01-0.84,0.02-1.96-0.02-3.57c0.06-0.02,0.05-1.59,0.04-3.57l0.08,0.13c-0.02-2.13-0.07-1.97-0.1-3.22
			c0.01-2.38,0.07-2.87,0.13-3.43c0.01-3.81-0.1,2.63-0.12-1.88c0.03-3.17,0-5.39-0.05-9.19c0.03-2.22,0.05,0.39,0.07-0.41
			l-0.07-1.97c0-0.48,0.02-0.33,0.03-0.25c-0.03-1.66-0.08-0.14-0.11-2.74c-0.09-0.7,0.13-5.35,0.03-8.57
			c0.02-0.79,0.05,0.38,0.08,0.14c-0.07-4.42-0.05-3.79-0.14-7.42l0.05-3.09c-0.06,2.27-0.14-0.63-0.2-3.18
			c-0.03,0.81-0.05,1.5-0.07,1.96l-0.04-4.06c0.01-0.49,0.04-0.08,0.08,0.58c-0.01-0.28-0.01-0.54-0.02-0.74
			c0.03-1.45,0.08-0.7,0.12,0.34c-0.02,0.49-0.03,0.98-0.05,1.46c0.05,1,0.11,1.94,0.15,1.73c-0.01-0.26-0.02-0.77-0.02-1.33
			c0.01,0.26,0.03,0.43,0.03,0.31c0.01-0.14-0.01-0.56-0.03-1.23l0.09-0.92l-0.04-0.22l0.06-5.31c-0.09-3.8-0.23-7.11-0.27-13.14
			c0.07,1.5,0.11,0.32,0.19,0.4c-0.08,1.65,0.04,4.67,0.02,7.8c0.01-1.63,0.05-1.27,0.06-0.86l-0.08-5.58
			c0.07,0.13,0.05-1.18,0.08-2.64c-0.13,1.1-0.09-4.16-0.13-6.42c0.04-0.14,0.09,0.4,0.08,3.17c0.1-3.05-0.15-3.95-0.07-6.94
			c0,0.68-0.01,1.04,0.02,1.31c-0.04-1.58-0.01-5.44,0.03-4.53l0,0.67c0.02-4.49,0-13.66-0.11-14.33c0.01-0.04,0.13,0.59,0.16,0.86
			L0.3,182c0.09,0.71,0.32-2,0.37,1.72c0.01-1.07,0.03-2.39,0-4.64c-0.01,0.73-0.14,1.82-0.15,0.82c0.11-2.73,0.06-1.9,0.15-5.27
			c-0.02,1.09-0.17-0.12-0.16-1.85c0.02,0.27,0.15-0.14,0.16,0.49l-0.15-4.3c0.03,1.07,0.12,0.19,0.16-0.77
			c-0.03,0.45,0-3.71-0.01-4.86l-0.03,1.82c0.02-4.85-0.2-4.79-0.2-9.6c0.03,0.58,0.19,1.44,0.2-1.01
			c-0.07-1.12-0.36-4.97-0.42-9.22l0.04-0.82l-0.05-3.27c0.11,2.03,0.35,7.74,0.44,10.86c0.03-1.82,0.05-0.51,0.05-3.22
			c0.04-0.96,0.06,1.48,0.06,2.28l0.03-6.33c-0.09,0.28-0.09-4.84-0.16-4.6l0.09,6.87c-0.09,0.28-0.25-3.97-0.23-8.46
			c0.03-1.14,0.16,0.85,0.18,0.76c-0.03-0.58-0.06-4.26-0.04-4.67l0.05,1.9c0.03-2.5-0.12-4.07-0.03-7.07
			c0.01-1.04,0.11-3.09,0.06-3.27c-0.1,1.69-0.41,2.02-0.48,0.89c0.01-0.36,0.1-5.44,0.14-6.62c0.08-1.71,0.19,2.56,0.25,1.11
			c-0.02-0.06-0.05-1-0.06-1.4c0.02-1.09,0.07,0.45,0.06-1.91c-0.09-0.39,0.01-4.81-0.07-1.12c-0.03-2.31,0.02-2.46,0.01-5.17
			c-0.06,0.86-0.19-2.44-0.22-4.75c0.02,0.14,0.05-0.38,0.07-0.64c0.02-4.74,0.03-7.28,0.05-11.7c0.02-0.41,0.05-2.54,0.09-1.63
			c-0.02-0.64-0.05-1.22-0.05-2.58c0.08-2.64,0.01,3.04,0.1,1.03c-0.05-0.17-0.07-3.52-0.1-5.47c-0.08,0.6-0.02,4.48,0.02,6.43
			c-0.11,0.01-0.22-3.37-0.27-7.99c-0.03-3.67,0.07-1.59,0.06-2.23c0.02-6.89-0.19-5.87-0.11-11.6c0.07-2.27,0.14-0.1,0.19-0.61
			c0.03,2.99-0.04,4.59-0.04,6.62l0.03-2.49c0.02,0.95,0.04,2.95,0.02,4.03c0.06-1.9,0.01-11.65,0.07-16.97
			c-0.02-0.94-0.05-2.58-0.08-1.8l0.01,1.68c-0.06,1.55-0.08-3.17-0.1-1.04c-0.04-2.26-0.1-4.79-0.07-7.97l0.08-0.6
			c-0.02,0.07-0.05,2.08-0.02,2.97c-0.04-1.32,0.11-4.87,0-6.32l-0.06,2.23c-0.04-2.27-0.12-5.07-0.1-7.88
			c-0.08,1.28,0.01,0.65-0.08,2.65c0.11-1.74,0,7.21,0.12,4.42c-0.11,2.05-0.05,3.55-0.14,6.24c0.03-0.08,0.05-0.95,0.04,1.41
			c0.01,0.12,0.02,0.36,0.02,0.52c0,0.07,0,0.1,0,0.16c0-0.05,0-0.08,0-0.13c0,0.1,0,0.11,0-0.05c0.01-0.56,0.03-1.02,0.04-1.2
			c0.06,1.17,0.06,4.93,0.09,6.21c-0.01,1.4-0.03-0.59-0.06,0.18l0.05,1.9c-0.06,0.19-0.1,3.73-0.13,0.42l0,2.97
			c-0.03,1.75-0.05,4.16-0.02,5.65c-0.01,1.4,0.06,3.54,0.02,2.32l0.04,4.67L0.1,81.17c-0.01,4.6,0.1,9.48-0.01,14.74
			c0.01,1.55,0.03,3.15,0.02,5.74l-0.05,0.51c0.02,1.99-0.05,5.98,0,6.83c-0.14,2.15-0.03,9.66-0.05,13.16l0.07,0.13
			c0,2.41,0.01,4.72,0.04,7.71l0.06-0.18c0.05,2.58-0.04,6.63-0.04,10.71c-0.02-0.28-0.02-1.31,0-2.04c-0.13,4.87,0.1,10.28,0,14.7
			c0.02,1.1,0.01,1.9,0,2.67c0-0.1,0-0.19,0-0.27c0,0.11,0,0.28,0,0.45c-0.01,0.49-0.02,0.99-0.03,1.53
			c0.01-0.47,0.02-0.91,0.03-1.29c0.01,0.85,0.01,2.13,0.02,3.4l-0.06,0.54c0,0.1,0,0.18,0,0.29c-0.02,1.24,0.03,1,0.08,0.34
			c0.01,0.64,0.02,1.22,0.04,1.67c-0.1,1.01,0.03,3.31-0.07,4.68c0.05,0.85,0.04,6.35,0.15,7.02c-0.01,0.04-0.02,0.42-0.02-0.27
			c-0.01,1.41-0.03,2.81,0.01,4.08l-0.08,0.6l0.11,3.07c-0.05,1.87-0.08,2.64-0.14,0.79c0.09,4.48,0.04,3.63,0.13,7.44l-0.05-0.19
			c0,1.36,0.07,3.54,0.03,4.36c-0.1,3.04-0.01,15.06-0.1,22.87c0.15-1.52-0.07,3.63,0.05,3.94c-0.04,0.46-0.06,1.54-0.09,0.28
			c0.04,3.99-0.06,5.99,0.04,8.74c-0.04,0.46-0.05-0.85-0.07-0.45c0.01,0.32,0.03,1.27,0.01,1.68c-0.02,0.41-0.03-0.58-0.05-1.21
			c0.01,4.07,0.12,4.48,0.22,4.78c-0.05,2.06-0.04,3.09,0.03,4.58c-0.03,0.72-0.07,1.92-0.08-0.61c0,1.42-0.05,8.7,0.03,8.84
			c-0.02,0.45-0.01,1.99,0,2.36c0,3.19,0,3.47,0,6.61l0.01-0.87c0.1,1.24,0.02,2.61,0.03,5.14l-0.01-0.07
			c-0.07,5.8,0.03,2.5-0.05,8.22l0.06-0.31c0.13,0.53-0.08,5.07-0.03,8.39l0.04-1.2c0.05,1.81-0.18,5.07-0.2,6.89
			c-0.01,0.4-0.02-0.63-0.03-1.18c-0.08,4.77,0.08,0.62,0.1,4.17c-0.04,0.66-0.11-0.84-0.12,1.55c-0.04,1.19,0.14,6.94,0.06,10.2
			c0.03-0.72,0.07-1.43,0.09,0.22c0.01,2.53-0.13,6.84-0.02,9.12c-0.01,0.32-0.02,0.44-0.03,0.46c0.03,1.93,0.05,6.28,0.1,7.45
			c-0.21,1.79,0.1,12.02-0.09,11.98l0.01,5.95l-0.02-0.16c-0.01,3.8,0.03,5.15,0.08,6.48c-0.01,0.88-0.03,0.24-0.04,0.16
			c-0.04,5.55-0.03,6.11,0.07,10.76l-0.06,0.48c0.04,1.26-0.1,8.03-0.03,13.48c-0.01-0.05-0.02-0.17-0.03-0.6
			c0.08,6.13-0.18,14.67,0.06,16.92l0.06,4.04c0.02-5.23,0.1,0.78,0.14-1.37c0.01,2.06-0.07,5.32-0.08,2.79l0.01-0.4
			c-0.12-0.93-0.04,6.5-0.13,6.36c-0.02,10.3-0.05,20.33-0.07,29.98l0.09-1.11l-0.01,3.36c-0.02,0.88-0.07,1.19-0.07-1.21
			c-0.03,0.63-0.02,1.64,0,2.49c0.02,0.86,0.05,1.57,0.06,1.6c-0.04,4.7-0.11-1.84-0.11-0.39l0.01,1.96l0.01-0.44
			c0.04,1.59,0.08,1.73,0.08,4.61c-0.02,1.83-0.06,0.94-0.06,1.65c0,0-0.01,0.06-0.01,0.23c0,0.17,0,0.44,0,0.88l-0.01,4.24
			l0.07-1.69c0.04,1.88,0,3.99,0.08,2.03c-0.13,2.87-0.05,15.81-0.09,17.57c0.05,2.63,0.05,5.23,0.05,8.45
			c0.02-0.8,0.1-1.28,0.09,1.5c-0.17-1.01-0.08,5.08-0.2,7.32c0.08-2,0.02,7.89,0.14,4.74c-0.01,2.32-0.06,0.14-0.11,1.9
			c0.07,5.51-0.04,12.15-0.02,18.96c0.02,0.11,0.06-1.03,0.09,0.43l-0.11,3.6c0.01,1.35,0.13,1.24,0.05,3.7
			c0.02-0.35,0.05-0.87,0.06,0.04c-0.11,13.35,0.09,27.27-0.12,40.83c0.04-1.84,0.05-0.61,0.05,0.79c0.01-0.91,0.06,0.02,0.09-0.16
			l-0.09,5.67c0.09,1.03,0.01,6.08,0.09,6.68l-0.01-1.8c0.1,2.39,0.22-3.34,0.34-2.99c-0.11-2.68,0.16-7.06,0.01-11.45
			c0.03-0.97,0.04,0.83,0.07,0.31c-0.05-1.11-0.06-2.46-0.04-4.95l0.01,0.28c-0.01-7,0.04-10,0.07-17.86l-0.06,0.58
			c0.01-1.69,0.03-2.04,0.04-2.84c-0.09-1.94-0.01,4.74-0.11,2.98c0.12-2.24,0-11.91,0.14-13.42c0-2.6-0.07,0.76-0.07-1.84
			l0.04-0.69l-0.05-0.66c0.01-1.7,0.06-2.56,0.09-2.63c0,0.41,0.01,1.17,0.01,1.62c0.05-2.21-0.02-6.23,0-6.99l-0.02,2.5
			c-0.04-7.09,0.01-15.75-0.06-22.6l-0.03,0.52c-0.05-5.23,0.03-4.19,0.01-9.93l0.01,0.21c-0.03-1.15-0.04-2.68-0.04-4.26
			c0.03,1.45,0.07-2.73,0.1-0.83c-0.06-5.67-0.05-2.81-0.15-6.55l0.05-0.86c-0.04-1.28-0.07-1.38-0.08-4.25
			c0.04,2.35,0.07-1.83,0.13,0.8c0.11-6.02-0.11-8.94,0.05-11.7c-0.13-2.76-0.07,5.21-0.1,3.66c-0.04,1.3-0.1-2.28-0.09-4.17
			c0-1.92,0.17-3.27,0.17-8.11c0,0.48,0,0.52,0.01,0.99c0.03-1.81-0.05-3.55,0.01-5.77c-0.08-1.24,0-2.88-0.1-3.24l0.02,4.44
			c-0.03-2.52-0.15-4.87-0.09-9.02c0.02,0.32,0.05,1.56,0.06,2.4c0.03-1.21-0.02-2.33,0.01-3.59c0.1,0.36,0.02,5.39,0.1,8.09
			c0.04-1.3-0.07-5.1,0.04-3.74c-0.14-1.95,0.02-4.77-0.09-8.04l0.06,0.22c-0.01-0.52-0.04-1.59-0.04-2.55l0.08,1.73
			c-0.07-2.65,0.06-5.11,0.02-7.66c0,5.33-0.07,1.2-0.12,3.45c-0.08-6.57,0.16-3.78,0.13-11.13c0.01,1-0.04,3.74-0.07,2.18
			c0.01-1.4,0.04-3.25,0.07-4.11c-0.01-4.87-0.06,0.75-0.1-1.33c0.07-1.66-0.03-2.39-0.05-4.53l0.06-0.02
			c0.04-5.55-0.13-1.47-0.08-6.47l0.09,2.11l-0.02-2.61l0.07,0.54c-0.05-2.84-0.04-3.72-0.02-6.5c-0.04,0.65-0.11-0.36-0.12-2.82
			c0.04-1.68,0.06,0.94,0.05-2.55c0.04,0.79,0.09,1.65,0.03,3.17c0.02,0.16,0.04,0.78,0.06,0.94c0.04-1.81,0.01-4.54,0.01-5.8
			c0,0.49-0.01,1.07-0.01,1.36l-0.09-5.05c0.02-0.8,0.04-0.16,0.06,0.46c-0.01-1.02-0.04-1.73-0.04-3.24
			c0.05,0.39,0.1,0.3,0.13,2.43l-0.06-4.82c0.02-0.32,0.06-2.47,0.08-1.85c0.03-2.67-0.1-6.55-0.06-10.09
			c-0.01-0.18-0.02-0.55-0.03-1.31c0.01-3.33,0.07-6.27,0-10.22l0.09-2.24c-0.02-3.09-0.11,3.03-0.15-2.11
			c-0.03-3.64,0.08-1.36,0.1-2.64c-0.05-1.81-0.14-4.96-0.07-8.3C0.75,326.12,0.73,326.99,0.74,328.02z M0.7,289.94
			c0.01,0.74,0.05,2.21,0.02,2.75C0.64,291.85,0.68,291.2,0.7,289.94z M0.55,232.05c0.02,0.55,0.01,1.4-0.01,2.35
			C0.53,233.71,0.53,232.92,0.55,232.05z M0.11,70.79c0,0.03,0,0.05,0,0.08C0.09,72.51,0.1,71.93,0.11,70.79z M0.14,67.37
			c-0.01-0.34-0.02-0.32-0.03-0.17c0.02,0.24,0.02,1.01,0.01,1.88C0.14,68.83,0.15,68.39,0.14,67.37z M0.17,434.42l0.02-0.67
			C0.2,435.26,0.18,434.84,0.17,434.42z"/>
		<path d="M0.63,238.61c-0.01,0.21-0.02,0.27-0.03,0.32C0.61,239.22,0.62,239.23,0.63,238.61z"/>
		<path d="M0.77,351.7l0,0.12c0,0.06,0.01,0.1,0.01,0.12L0.77,351.7z"/>
		<path d="M0.67,120.32c-0.01,0.7-0.02,1.1-0.03,1.36C0.65,121.71,0.67,121.39,0.67,120.32z"/>
		<path d="M0.03,49.26l0.02,2.19c0-1.06,0.01-1.44,0.02-1.97C0.06,49.53,0.04,49.94,0.03,49.26z"/>
		<path d="M0.42,30.26c0-0.32-0.01-0.67-0.01-0.99l-0.03,0.09C0.39,30.71,0.41,31.66,0.42,30.26z"/>
		<path d="M0.24,47.23c0.05-0.17,0.03-1.55,0.02-3.08c0,0.09,0,0.18,0,0.27C0.19,43.97,0.22,45.6,0.24,47.23z"/>
		<path d="M0.27,43.8c0-0.47,0-0.95,0-1.42C0.23,42.2,0.26,42.95,0.27,43.8z"/>
		<path d="M0.11,63.04c0.01-0.73-0.07-0.46-0.05-0.87C-0.01,61.36,0.14,67.02,0.11,63.04z"/>
		<polygon points="0.42,45.99 0.35,46.54 0.4,47.4 		"/>
		<path d="M0.37,58.1l0.02-2.45c-0.01,0.04-0.02-0.27-0.02-0.66C0.36,56.5,0.35,58.16,0.37,58.1z"/>
		<path d="M0.36,54.99c0-0.79,0-1.53-0.01-1.97C0.36,53.45,0.36,54.36,0.36,54.99z"/>
		<polygon points="0.43,49.34 0.42,50.06 0.42,51.79 		"/>
		<path d="M0.36,84.44l0.02,2.67c0.02,0.27,0.04-0.46,0.03-1.45C0.39,85.02,0.38,84.03,0.36,84.44z"/>
		<path d="M0.53,76.35c-0.01,0.72-0.03,0.77-0.05,1.18l0.08,0.08L0.53,76.35z"/>
		<path d="M0.55,84.15c0.02,0.27,0.06,3.88,0.06,0.49C0.59,84.37,0.57,81.69,0.55,84.15z"/>
		<polygon points="0.45,124.45 0.45,123.77 0.32,123.87 		"/>
		<path d="M0.77,159.97c0.03-3.17-0.08-0.75-0.04-3.62c-0.03-0.74-0.03,2.34-0.06,1.58C0.7,159.84,0.68,160.85,0.77,159.97z"/>
		<path d="M0.66,157.93c-0.01-0.31-0.01-0.63-0.02-0.98C0.66,157.5,0.66,157.77,0.66,157.93z"/>
		<polygon points="0.1,558.85 0.07,560.89 0.12,559.57 		"/>
		<path d="M0.87,284.28l-0.02-0.16c-0.02,0.32-0.02,0.79-0.03,1.75L0.87,284.28z"/>
		<polygon points="0.81,311.92 0.81,311.44 0.73,312.33 		"/>
		<path d="M0.9,335.11c0-0.95-0.01-2.06-0.01-3.01C0.91,334.17,0.81,335.37,0.9,335.11z"/>
	</g>
</g>
</svg>
