<svg width="114" height="94" viewBox="0 0 114 94" fill="none" xmlns="http://www.w3.org/2000/svg">
<path d="M65.3415 4.60114L64.0641 0L32.6707 8.32456L1.27735 0L0 4.60114L26.9858 11.76L0 18.912L1.27735 23.5131L32.6707 15.1885L64.0641 23.5131L65.3415 18.912L38.3557 11.7531L65.3415 4.60114Z" fill="#191919"/>
<path d="M61.1663 33.12L32.6715 19.4743L4.17676 33.12L6.32439 37.3988L32.6715 24.7748L59.0187 37.3988L61.1663 33.12Z" fill="#191919"/>
<path d="M53.5578 44.969L32.671 30.0204L11.7842 44.969L14.6687 48.809L32.671 35.9244L50.6732 48.809L53.5578 44.969Z" fill="#191919"/>
<path d="M42.6724 53.1704L32.6712 42.5898L22.6699 53.1704L26.2493 56.4001L32.6712 49.6115L39.093 56.4001L42.6724 53.1704Z" fill="#191919"/>
<path d="M30.585 62.9758H38.2869V64.5234H32.2463V68.3407H37.8698V69.8882H32.2463V75.1499H30.585V62.9689V62.9758Z" fill="#191919"/>
<path d="M48.2269 75.4595C47.2955 75.4595 46.4335 75.2945 45.648 74.9712C44.8625 74.6479 44.1883 74.194 43.6322 73.6231C43.0761 73.0522 42.6312 72.3713 42.3184 71.5941C41.9986 70.8169 41.8457 69.9709 41.8457 69.063C41.8457 68.1551 42.0056 67.3159 42.3184 66.5318C42.6381 65.7546 43.0761 65.0737 43.6322 64.5028C44.1883 63.9319 44.8625 63.478 45.648 63.1547C46.4335 62.8246 47.2885 62.6664 48.2269 62.6664C49.1653 62.6664 50.0203 62.8315 50.8058 63.1547C51.5913 63.4849 52.2586 63.9319 52.8217 64.5028C53.3778 65.0737 53.8157 65.7546 54.1355 66.5318C54.4552 67.3091 54.6081 68.1551 54.6081 69.063C54.6081 69.9709 54.4483 70.81 54.1355 71.5941C53.8157 72.3713 53.3778 73.0522 52.8217 73.6231C52.2656 74.194 51.5913 74.6479 50.8058 74.9712C50.0203 75.3013 49.1653 75.4595 48.2269 75.4595ZM48.2269 73.912C48.929 73.912 49.5616 73.7813 50.1316 73.5268C50.6946 73.2723 51.1812 72.9215 51.5844 72.4882C51.9875 72.0549 52.3003 71.539 52.5158 70.9475C52.7313 70.356 52.8425 69.7301 52.8425 69.063C52.8425 68.3958 52.7313 67.7699 52.5158 67.1784C52.2934 66.5869 51.9875 66.0779 51.5844 65.6377C51.1812 65.2044 50.6946 64.8536 50.1316 64.5991C49.5685 64.3446 48.929 64.2139 48.2269 64.2139C47.5248 64.2139 46.8853 64.3446 46.3223 64.5991C45.7592 64.8605 45.2727 65.2044 44.8695 65.6377C44.4663 66.071 44.1535 66.5869 43.938 67.1784C43.7156 67.7699 43.6113 68.3958 43.6113 69.063C43.6113 69.7301 43.7225 70.356 43.938 70.9475C44.1535 71.539 44.4663 72.0549 44.8695 72.4882C45.2727 72.9215 45.7592 73.2723 46.3223 73.5268C46.8853 73.7882 47.5248 73.912 48.2269 73.912Z" fill="#191919"/>
<path d="M58.4805 62.9757H62.7902C63.5757 62.9757 64.2222 63.0789 64.7296 63.2921C65.2371 63.5053 65.6402 63.7736 65.9322 64.1037C66.2241 64.4339 66.4327 64.7984 66.5439 65.2042C66.6621 65.61 66.7177 66.002 66.7177 66.3803C66.7177 66.7586 66.6482 67.1438 66.5091 67.5083C66.3701 67.8729 66.1685 68.1961 65.9113 68.4919C65.6541 68.7877 65.3344 69.0284 64.959 69.2347C64.5836 69.4342 64.1666 69.558 63.7078 69.6061L67.1834 75.1636H65.105L61.9908 69.7987H60.1418V75.1636H58.4805V62.9826V62.9757ZM60.1418 68.3406H62.3245C62.6443 68.3406 62.964 68.3131 63.2838 68.2649C63.6035 68.2099 63.8816 68.1205 64.1318 67.9829C64.3821 67.8454 64.5767 67.6459 64.7296 67.3914C64.8825 67.1369 64.9521 66.7999 64.9521 66.3872C64.9521 65.9745 64.8756 65.6375 64.7296 65.383C64.5836 65.1285 64.3821 64.9291 64.1318 64.7915C63.8816 64.6539 63.6035 64.5577 63.2838 64.5095C62.964 64.4545 62.6443 64.4339 62.3245 64.4339H60.1418V68.3543V68.3406Z" fill="#191919"/>
<path d="M70.5889 62.9757H74.8986C75.6841 62.9757 76.3306 63.0789 76.838 63.2921C77.3455 63.5053 77.7486 63.7736 78.0406 64.1037C78.3325 64.4339 78.5411 64.7984 78.6523 65.2042C78.7705 65.61 78.8261 66.002 78.8261 66.3803C78.8261 66.7586 78.7565 67.1438 78.6175 67.5083C78.4785 67.8729 78.2769 68.1961 78.0197 68.4919C77.7625 68.7877 77.4428 69.0284 77.0674 69.2347C76.692 69.4342 76.275 69.558 75.8162 69.6061L79.2918 75.1636H77.2134L74.0992 69.7987H72.2502V75.1636H70.5889V62.9826V62.9757ZM72.2502 68.3406H74.4329C74.7526 68.3406 75.0724 68.3131 75.3922 68.2649C75.7119 68.2099 75.99 68.1205 76.2402 67.9829C76.4905 67.8454 76.6851 67.6459 76.838 67.3914C76.9909 67.1369 77.0605 66.7999 77.0605 66.3872C77.0605 65.9745 76.984 65.6375 76.838 65.383C76.692 65.1285 76.4905 64.9291 76.2402 64.7915C75.99 64.6539 75.7119 64.5577 75.3922 64.5095C75.0724 64.4545 74.7526 64.4339 74.4329 64.4339H72.2502V68.3543V68.3406Z" fill="#191919"/>
<path d="M82.6836 62.9757H90.5871V64.5233H84.3449V68.1549H90.1561V69.7024H84.3449V73.6092H90.8999V75.1567H82.6836V62.9757V62.9757Z" fill="#191919"/>
<path d="M95.0228 72.6051C95.3217 73.0522 95.704 73.3824 96.1767 73.5956C96.6425 73.8088 97.1221 73.912 97.6226 73.912C97.9006 73.912 98.1787 73.8707 98.4706 73.7813C98.7556 73.6987 99.0198 73.5681 99.2561 73.3961C99.4925 73.2242 99.6871 73.0109 99.8331 72.7633C99.986 72.5088 100.056 72.22 100.056 71.8829C100.056 71.4152 99.9026 71.0576 99.6037 70.81C99.3048 70.5624 98.9294 70.356 98.4845 70.191C98.0396 70.0259 97.5531 69.8608 97.0317 69.7095C96.5104 69.5582 96.0238 69.3381 95.5789 69.063C95.134 68.7878 94.7656 68.4164 94.4598 67.9556C94.1609 67.4948 94.008 66.862 94.008 66.071C94.008 65.7133 94.0844 65.3351 94.2443 64.9361C94.3972 64.5372 94.6475 64.1658 94.9811 63.8356C95.3148 63.5055 95.7458 63.2235 96.2671 63.0034C96.7884 62.7764 97.421 62.6664 98.1648 62.6664C98.8321 62.6664 99.4716 62.7558 100.083 62.9415C100.695 63.1272 101.23 63.4986 101.689 64.0626L100.341 65.2869C100.132 64.9636 99.84 64.7092 99.4577 64.5097C99.0754 64.3171 98.6444 64.2139 98.1578 64.2139C97.6712 64.2139 97.3098 64.2758 97.0039 64.3928C96.6981 64.5166 96.4548 64.6679 96.2671 64.8605C96.0794 65.0531 95.9543 65.2525 95.8778 65.4726C95.8014 65.6927 95.7666 65.8922 95.7666 66.0779C95.7666 66.5937 95.9195 66.9927 96.2184 67.2678C96.5173 67.5429 96.8927 67.7699 97.3376 67.9418C97.7825 68.1138 98.269 68.2651 98.7904 68.4027C99.3117 68.5402 99.7983 68.7328 100.243 68.9804C100.688 69.228 101.056 69.5582 101.362 69.9777C101.661 70.3973 101.814 70.975 101.814 71.7041C101.814 72.2887 101.703 72.8184 101.474 73.2861C101.251 73.7538 100.945 74.1527 100.563 74.476C100.181 74.7992 99.7357 75.0468 99.2144 75.2188C98.6931 75.3907 98.1439 75.4733 97.5531 75.4733C96.7676 75.4733 96.0238 75.3357 95.3217 75.0606C94.6197 74.7855 94.0566 74.359 93.6465 73.7882L95.0159 72.6189L95.0228 72.6051Z" fill="#191919"/>
<path d="M108.39 64.5233H104.448V62.9757H113.999V64.5233H110.058V75.1567H108.397V64.5233H108.39Z" fill="#191919"/>
<path d="M30.585 81.7999H32.2463V92.4334H37.8698V93.9809H30.585V81.7999Z" fill="#191919"/>
<path d="M58.4591 81.8184H62.7132C63.2415 81.8184 63.7351 81.8803 64.1939 82.011C64.6526 82.1348 65.0419 82.3205 65.3686 82.5682C65.6953 82.8158 65.9595 83.1321 66.1472 83.5173C66.3348 83.9025 66.4322 84.3496 66.4322 84.8654C66.4322 85.567 66.2375 86.1379 65.8413 86.578C65.452 87.0182 64.9446 87.3415 64.319 87.5479V87.5822C64.6874 87.6029 65.035 87.6992 65.3547 87.8642C65.6745 88.0293 65.9595 88.2494 66.1958 88.5176C66.4322 88.7859 66.6198 89.1023 66.7589 89.4531C66.8979 89.8107 66.9674 90.1959 66.9674 90.6086C66.9674 91.1588 66.8562 91.6403 66.6268 92.0598C66.4043 92.4794 66.0915 92.8302 65.7023 93.1191C65.313 93.4079 64.8542 93.6211 64.3329 93.7725C63.8115 93.9238 63.2554 93.9994 62.6576 93.9994H58.4521V81.8184H58.4591ZM60.1204 86.8738H62.3865C62.6993 86.8738 62.9913 86.8394 63.2693 86.7775C63.5474 86.7156 63.7907 86.6056 63.9992 86.4611C64.2078 86.3167 64.3746 86.1241 64.4928 85.8902C64.6109 85.6633 64.6735 85.3813 64.6735 85.0442C64.6735 84.5628 64.5206 84.1432 64.2078 83.7856C63.895 83.4279 63.4084 83.2491 62.7341 83.2491H60.1204V86.86V86.8738ZM60.1204 92.5482H62.5603C62.8106 92.5482 63.0956 92.5207 63.4014 92.4725C63.7073 92.4175 63.9923 92.3212 64.2564 92.163C64.5206 92.0117 64.743 91.7985 64.9307 91.5371C65.1184 91.2757 65.2087 90.925 65.2087 90.4848C65.2087 89.7626 64.9724 89.2192 64.4997 88.8615C64.027 88.497 63.3875 88.3182 62.5812 88.3182H60.1274V92.5482H60.1204Z" fill="#191919"/>
<path d="M48.8899 81.8188H47.4996L42.1055 93.9998H43.9823L48.16 83.951H48.2295L52.4072 93.9998H54.284L48.8899 81.8188Z" fill="#191919"/>
</svg>
