<?xml version="1.0" encoding="utf-8"?>
<!-- Generator: Adobe Illustrator 26.3.1, SVG Export Plug-In . SVG Version: 6.00 Build 0)  -->
<svg version="1.1" id="Layer_1" xmlns="http://www.w3.org/2000/svg" xmlns:xlink="http://www.w3.org/1999/xlink" x="0px" y="0px"
	 viewBox="0 0 738.24 1.02" style="enable-background:new 0 0 738.24 1.02;" xml:space="preserve">
<g>
	<g>
		<g>
			<path d="M22.03,0.91c-1.1,0.04,1.51,0.06,0.35,0.09c1.81-0.01,3.35-0.04,4.74-0.07C25.64,0.95,24.07,0.94,22.03,0.91z"/>
			<path d="M29.45,0.89c-0.73,0.01-1.5,0.03-2.33,0.04C27.9,0.92,28.67,0.91,29.45,0.89z"/>
			<path d="M24.67,0.84c1.2-0.02,2.52-0.03,4.01-0.03c-1.6-0.01-3.24-0.01-4.81-0.02C23.65,0.81,22.96,0.84,24.67,0.84z"/>
			<path d="M18.75,0.82c0.08,0,0.19,0,0.27,0C18.85,0.81,18.72,0.81,18.75,0.82z"/>
			<path d="M43.33,0.81c-0.08,0-0.15-0.01-0.24-0.01l-0.05,0.01L43.33,0.81z"/>
			<path d="M23.61,0.78c-1.2-0.01-1.92,0-2.6,0.02c0.9,0,1.85-0.01,2.87-0.01C23.97,0.78,23.99,0.78,23.61,0.78z"/>
			<path d="M33.54,0.86c-0.63-0.01-1.33-0.02-2.08-0.03C32.07,0.85,33.32,0.88,33.54,0.86z"/>
			<path d="M19.42,0.83c-0.06,0-0.11,0-0.18,0C19.63,0.85,19.58,0.84,19.42,0.83z"/>
			<path d="M19.42,0.83c0.61-0.01,1.1-0.02,1.59-0.03c-0.73,0.01-1.4,0.01-1.99,0.02C19.16,0.82,19.31,0.83,19.42,0.83z"/>
			<path d="M47.77,0.45c-0.21,0.05-3.36,0.1-6.08,0.04c-2.68,0.04-0.93,0.21,1.41,0.3c0.08-0.02,0.08-0.04,2.84-0.07
				c-0.96-0.03-6.11-0.07-3.79-0.11c3.65-0.03,2.99,0.02,4.76,0.05c-1.51-0.06,4.64-0.09,3.85-0.19l-3.2,0.03
				C47.5,0.49,48.66,0.47,47.77,0.45z"/>
			<path d="M37.85,0.79L36.72,0.8c1.29,0.01,2.22,0.03,3.92,0.07c1.89-0.03,2.28-0.04,2.41-0.06L37.46,0.8L37.85,0.79z"/>
			<path d="M31.63,0.8c0.89-0.06,3.61-0.08,1.94-0.14c-3.33,0-2.33,0.05-4.32,0.07c5.37-0.01-1.54,0.03,2.34,0.06
				c-1.06,0.01-2.01,0.01-2.9,0.01c0.97,0.01,1.9,0.02,2.78,0.03c-0.05,0-0.08,0-0.12,0l-0.03,0l0.01,0
				c-0.23-0.01-0.31-0.01-0.05-0.01c0.02,0,0.08,0,0.11,0C31.42,0.81,31.52,0.81,31.63,0.8c1.55,0.01,0.24,0.01-0.24,0.02
				c-0.02,0-0.06,0.01-0.07,0.01c0,0,0.01,0,0.02,0l5.38-0.03C35.58,0.79,34.15,0.79,31.63,0.8z"/>
			<path d="M19.39,0.66l4.48-0.03l-2.28-0.05l0.12,0.03C19.16,0.6,19.71,0.64,19.39,0.66z"/>
			<polygon points="43.85,0.84 43.25,0.89 45.84,0.81 			"/>
			<polygon points="49.67,0.83 49.45,0.88 50.99,0.85 			"/>
			<path d="M378.11,0.19l1.32-0.01C378.8,0.18,378.4,0.19,378.11,0.19z"/>
			<path d="M368.58,0.19l-0.23,0.03C368.79,0.2,368.97,0.19,368.58,0.19z"/>
			<path d="M192.61,0.82c1.92,0.05,4.06,0.12,3.83,0.06l-0.59-0.06C194.51,0.84,193.48,0.83,192.61,0.82z"/>
			<path d="M290.51,0.49c-0.18-0.01-0.37-0.01-0.56-0.02c-0.47,0.02-0.9,0.04-1.29,0.05C289.21,0.51,289.84,0.5,290.51,0.49z"/>
			<path d="M291.86,0.25l2.53,0.04C293.81,0.28,293,0.27,291.86,0.25z"/>
			<path d="M430.14,0.13l1.54-0.06C429.28,0.08,430.33,0.1,430.14,0.13z"/>
			<path d="M109.28,0.81c1.65,0.02,2.97,0.03,4.13,0.03C111.41,0.81,109.8,0.76,109.28,0.81z"/>
			<path d="M374.36,0.79c0.81-0.01,1.15-0.02,1.13-0.03C374.66,0.76,374.19,0.78,374.36,0.79z"/>
			<path d="M118.18,0.84c-0.29,0-0.58-0.01-0.87-0.01c-1.21,0.01-2.43,0.02-3.9,0.01C114.88,0.87,116.56,0.88,118.18,0.84z"/>
			<path d="M618.86,0.18c0.14,0,0.3,0,0.43,0.01C619.33,0.18,619.14,0.18,618.86,0.18z"/>
			<path d="M673.84,0.75c-0.54,0-1.42,0-2.26,0C671.99,0.75,672.67,0.75,673.84,0.75z"/>
			<path d="M73.09,0.85C71.85,0.86,72.89,0.86,73.09,0.85L73.09,0.85z"/>
			<path d="M67.08,0.63c0.26-0.01,0.46-0.01,0.49-0.03C67.47,0.62,67.3,0.63,67.08,0.63z"/>
			<path d="M130.48,0.49c0.04,0,0.07,0,0.11,0C130.22,0.48,130.28,0.48,130.48,0.49z"/>
			<path d="M71.23,0.83c0.47,0,1,0.01,1.58,0.02C72.55,0.84,72.07,0.84,71.23,0.83z"/>
			<path d="M71.48,0.85c-0.43,0-0.76,0-1.08-0.01C70.24,0.86,70.38,0.86,71.48,0.85z"/>
			<path d="M74.81,0.85c-0.71,0-1.36,0-2-0.01c0.24,0,0.34,0.01,0.28,0.01C73.45,0.85,73.96,0.85,74.81,0.85z"/>
			<path d="M517.75,0.33c0.08,0,0.17,0,0.26,0.01C519.26,0.31,518.71,0.32,517.75,0.33z"/>
			<path d="M224.74,0.24c-0.06,0-0.09,0-0.14,0c0.06,0,0.13,0,0.18,0L224.74,0.24z"/>
			<path d="M229.17,0.2c-1.89,0.07-2.96,0.06-4.39,0.05l1.47,0.16L229.17,0.2z"/>
			<path d="M400.92,0.18l-3.11-0.05c3.76-0.08,6.48-0.05,3.55-0.13c-0.44,0.18-12.1,0.02-12.54,0.19l-2.05-0.04
				c0.59,0,0.68,0,1.26-0.01c-3.99-0.08-2.97,0.13-8.11,0.1c-1.79-0.01-3.04-0.04-1.82-0.06l-3.99,0.04c-1.16,0-0.88-0.03,0.28-0.03
				l-6.09,0.01l0.05-0.01c-0.89,0.02-2.85,0.07-3.8,0.09c-1.55-0.03,0.78-0.02,0.38-0.04l-3.37,0.04c-1.37-0.05,1.42-0.09,3.75-0.08
				c-3.15-0.18-2.8,0.04-9.6-0.06l3.18-0.02c-2.05-0.1-4.54-0.06-8.14-0.13c0.85,0.03,7.21,0.16,3.55,0.2
				c-1.03-0.01-2.39-0.02-4.37,0.02c-0.02-0.06-1.95-0.05-4.36-0.04l0.16-0.08c-2.61,0.02-2.4,0.07-3.94,0.1
				c-2.91-0.01-3.51-0.07-4.19-0.13c-4.66-0.01,3.22,0.1-2.3,0.12c-3.87-0.03-6.59,0-11.22,0.05c-2.71-0.03,0.47-0.05-0.5-0.07
				l-2.4,0.07c-0.59,0-0.4-0.02-0.3-0.03c-2.02,0.03-0.17,0.08-3.35,0.11c-0.86,0.09-6.53-0.13-10.47-0.03
				c-0.97-0.02,0.47-0.05,0.17-0.08c-5.4,0.07-4.63,0.05-9.07,0.14l-3.78-0.05c2.78,0.06-0.77,0.14-3.88,0.2
				c0.99,0.03,1.83,0.05,2.39,0.07l-4.96,0.04c-0.6-0.01-0.1-0.04,0.71-0.08c-0.34,0.01-0.66,0.01-0.91,0.02
				c-1.77-0.03-0.85-0.08,0.42-0.12c0.6,0.02,1.2,0.03,1.79,0.05c1.22-0.05,2.37-0.11,2.12-0.15c-0.32,0.01-0.94,0.02-1.63,0.02
				c0.32-0.01,0.53-0.03,0.38-0.03c-0.17-0.01-0.69,0.01-1.5,0.03l-1.13-0.09l-0.27,0.04l-6.49-0.06
				c-4.64,0.09-8.68,0.23-16.05,0.27c1.83-0.07,0.39-0.11,0.49-0.19c2.01,0.08,5.71-0.04,9.53-0.02c-1.99-0.01-1.56-0.05-1.05-0.06
				l-6.81,0.08c0.15-0.07-1.45-0.05-3.23-0.08c1.35,0.13-5.08,0.09-7.85,0.13c-0.17-0.04,0.49-0.09,3.87-0.08
				c-3.73-0.1-4.82,0.15-8.48,0.07c0.83,0,1.27,0.01,1.6-0.02c-1.93,0.04-6.64,0.01-5.53-0.03l0.82,0c-5.48-0.02-16.69,0-17.51,0.11
				c-0.05-0.01,0.72-0.13,1.05-0.16l-9.78,0.37c0.86-0.09-2.45-0.32,2.1-0.37c-1.31-0.01-2.92-0.03-5.67,0
				c0.89,0.01,2.22,0.14,1,0.15c-3.34-0.11-2.32-0.06-6.44-0.15c1.33,0.02-0.15,0.17-2.26,0.16c0.33-0.02-0.18-0.15,0.6-0.16
				l-5.25,0.15c1.31-0.03,0.23-0.12-0.94-0.16c0.55,0.03-4.54,0-5.94,0.01l2.23,0.03c-5.93-0.02-5.85,0.2-11.74,0.2
				c0.71-0.03,1.76-0.19-1.23-0.2c-1.37,0.07-6.07,0.36-11.27,0.42l-1-0.04l-3.99,0.05c2.49-0.11,9.46-0.35,13.27-0.44
				c-2.22-0.03-0.62-0.05-3.94-0.05c-1.17-0.04,1.81-0.06,2.79-0.06l-7.73-0.03c0.34,0.09-5.91,0.09-5.62,0.16l8.4-0.09
				c0.34,0.09-4.86,0.25-10.34,0.23c-1.39-0.03,1.04-0.16,0.93-0.18c-0.71,0.03-5.2,0.06-5.7,0.04l2.32-0.05
				c-3.05-0.03-4.98,0.12-8.64,0.03c-1.26-0.01-3.78-0.11-4-0.06c2.06,0.1,2.47,0.41,1.09,0.48c-0.44-0.01-6.64-0.1-8.09-0.14
				c-2.08-0.08,3.13-0.19,1.35-0.25c-0.08,0.02-1.23,0.05-1.71,0.06c-1.33-0.02,0.55-0.07-2.34-0.06c-0.48,0.09-5.87-0.01-1.37,0.07
				c-2.82,0.03-3-0.02-6.32-0.01c1.06,0.06-2.98,0.19-5.81,0.22c0.17-0.02-0.47-0.05-0.78-0.07c-5.79-0.02-8.9-0.03-14.3-0.05
				c-0.5-0.02-3.1-0.05-1.99-0.09c-0.78,0.02-1.49,0.05-3.16,0.05c-3.22-0.08,3.71-0.01,1.26-0.1c-0.21,0.05-4.31,0.07-6.68,0.1
				c0.73,0.08,5.48,0.02,7.85-0.02c0.01,0.11-4.12,0.22-9.77,0.27c-4.48,0.03-1.94-0.07-2.72-0.06C92.55,0.59,93.8,0.8,86.81,0.72
				c-2.78-0.07-0.13-0.14-0.74-0.19c3.65-0.03,5.61,0.04,8.08,0.04L91.1,0.54c1.16-0.02,3.6-0.04,4.93-0.02
				C93.71,0.46,81.8,0.51,75.3,0.45c-1.15,0.02-3.15,0.05-2.2,0.08l2.06-0.01c1.89,0.06-3.87,0.08-1.27,0.1
				c-2.76,0.04-5.85,0.1-9.73,0.07l-0.73-0.08c0.08,0.02,2.54,0.05,3.63,0.02c-1.62,0.04-5.95-0.11-7.73,0l2.72,0.06
				c-2.77,0.04-6.19,0.12-9.63,0.1c1.57,0.08,0.79-0.01,3.24,0.08c-2.12-0.11,8.8,0,5.4-0.12c2.51,0.11,4.34,0.05,7.62,0.14
				c-0.1-0.03-1.16-0.05,1.73-0.04c0.14-0.01,0.44-0.02,0.63-0.02c0.09,0,0.12,0,0.2,0c-0.06,0-0.1,0-0.16,0c0.13,0,0.14,0-0.06,0
				c-0.69-0.01-1.25-0.03-1.47-0.04c1.43-0.06,6.03-0.06,7.58-0.09c1.71,0.01-0.72,0.03,0.22,0.06l2.32-0.05
				c0.23,0.06,4.55,0.1,0.52,0.13l3.63,0c2.14,0.03,5.08,0.05,6.9,0.02c1.71,0.01,4.33-0.06,2.84-0.02l5.7-0.04l0.05,0.01
				c5.62,0.01,11.58-0.1,18.01,0.01c1.89-0.01,3.85-0.03,7.02-0.02l0.62,0.05c2.43-0.02,7.3,0.05,8.35,0
				c2.62,0.14,11.8,0.03,16.08,0.05l0.16-0.07c2.94,0,5.77-0.01,9.42-0.04l-0.22-0.06c3.15-0.05,8.1,0.04,13.08,0.04
				c-0.34,0.02-1.6,0.02-2.5,0c5.95,0.13,12.56-0.1,17.96,0c1.35-0.02,2.32-0.01,3.26,0c-0.12,0-0.24,0-0.33,0c0.14,0,0.34,0,0.55,0
				c0.59,0.01,1.21,0.02,1.87,0.03c-0.57-0.01-1.11-0.02-1.57-0.03c1.04-0.01,2.61-0.01,4.15-0.02l0.66,0.06c0.13,0,0.23,0,0.36,0
				c1.51,0.02,1.22-0.03,0.41-0.08c0.78-0.01,1.49-0.02,2.04-0.04c1.23,0.1,4.05-0.03,5.72,0.07c1.04-0.05,7.75-0.04,8.58-0.15
				c0.05,0.01,0.51,0.02-0.33,0.02c1.72,0.01,3.44,0.03,4.98-0.01l0.73,0.08l3.75-0.11c2.28,0.05,3.23,0.08,0.96,0.14
				c5.47-0.09,4.44-0.04,9.09-0.13l-0.23,0.05c1.66,0,4.32-0.07,5.32-0.03c3.72,0.1,18.4,0.01,27.95,0.1
				c-1.85-0.15,4.44,0.07,4.82-0.05c0.56,0.04,1.89,0.06,0.34,0.09c4.87-0.04,7.32,0.06,10.68-0.04c0.56,0.04-1.04,0.05-0.55,0.07
				c0.39-0.01,1.55-0.03,2.05-0.01c0.5,0.02-0.71,0.03-1.48,0.05c4.98-0.01,5.48-0.12,5.84-0.22c2.52,0.05,3.78,0.04,5.6-0.03
				c0.88,0.03,2.34,0.07-0.75,0.08c1.74,0,10.63,0.05,10.8-0.03c0.55,0.02,2.43,0.01,2.89,0c3.9,0,4.25,0,8.08,0l-1.06-0.01
				c1.51-0.1,3.19-0.02,6.28-0.03l-0.09,0.01c7.09,0.07,3.06-0.03,10.05,0.05l-0.38-0.06c0.65-0.13,6.19,0.08,10.25,0.03l-1.46-0.04
				c2.22-0.05,6.19,0.18,8.42,0.2c0.48,0.01-0.77,0.02-1.44,0.03c5.83,0.08,0.75-0.08,5.1-0.1c0.8,0.04-1.03,0.11,1.89,0.12
				c1.46,0.04,8.47-0.14,12.46-0.06c-0.88-0.03-1.75-0.07,0.27-0.09c3.09-0.01,8.36,0.13,11.15,0.02c0.39,0.01,0.54,0.02,0.56,0.03
				c2.36-0.03,7.68-0.05,9.1-0.1c2.18,0.21,14.69-0.1,14.63,0.09l7.27-0.01l-0.19,0.02c4.64,0.01,6.29-0.03,7.92-0.08
				c1.07,0.01,0.29,0.03,0.2,0.04c6.79,0.04,7.46,0.03,13.15-0.07l0.59,0.06c1.54-0.04,9.81,0.1,16.47,0.03
				c-0.07,0.01-0.2,0.02-0.73,0.03c7.49-0.08,17.93,0.18,20.67-0.06l4.94-0.06c-6.39-0.02,0.95-0.1-1.68-0.14
				c2.51-0.01,6.5,0.07,3.41,0.08l-0.48-0.01c-1.14,0.12,7.95,0.04,7.77,0.13c12.58,0.02,24.85,0.05,36.63,0.07l-1.36-0.09
				l4.11,0.01c1.08,0.02,1.45,0.07-1.48,0.07c0.77,0.03,2,0.02,3.05,0c1.05-0.02,1.91-0.05,1.95-0.06c5.74,0.04-2.24,0.11-0.48,0.11
				l2.39-0.01l-0.54-0.01c1.94-0.04,2.11-0.08,5.64-0.08c2.23,0.02,1.14,0.06,2.02,0.06c0,0,0.07,0.01,0.28,0.01
				c0.21,0,0.54,0,1.07,0l5.18,0.01l-2.07-0.07c2.3-0.04,4.87,0,2.48-0.08c3.51,0.13,19.32,0.05,21.47,0.09
				c3.22-0.05,6.39-0.05,10.32-0.05c-0.98-0.02-1.56-0.1,1.83-0.09c-1.24,0.17,6.21,0.08,8.95,0.2c-2.45-0.08,9.64-0.02,5.8-0.14
				c2.83,0.01,0.17,0.06,2.32,0.11c6.73-0.07,14.84,0.04,23.17,0.02c0.13-0.02-1.26-0.06,0.52-0.09l4.39,0.11
				c1.64-0.01,1.51-0.13,4.52-0.05c-0.42-0.02-1.06-0.05,0.05-0.06c16.31,0.11,33.32-0.09,49.88,0.12
				c-2.24-0.04-0.75-0.05,0.96-0.05c-1.11-0.01,0.03-0.06-0.19-0.09l6.93,0.09c1.26-0.09,7.43-0.01,8.16-0.09l-2.2,0.01
				c2.92-0.1-4.09-0.22-3.66-0.34c-3.27,0.11-8.62-0.16-13.98-0.01c-1.18-0.03,1.01-0.04,0.38-0.07c-1.36,0.05-3,0.06-6.04,0.04
				l0.34-0.01c-8.55,0.01-12.21-0.04-21.82-0.07l0.71,0.06c-2.06-0.01-2.5-0.03-3.46-0.04c-2.37,0.09,5.8,0.01,3.64,0.11
				c-2.74-0.12-14.55,0-16.4-0.14c-3.18,0,0.93,0.07-2.24,0.07l-0.84-0.04l-0.8,0.05c-2.08-0.01-3.13-0.06-3.21-0.09
				c0.51,0,1.44-0.01,1.98-0.01c-2.7-0.05-7.61,0.02-8.54,0l3.05,0.02c-8.66,0.04-19.24-0.01-27.61,0.06l0.64,0.03
				c-6.39,0.05-5.12-0.03-12.14-0.01l0.26-0.01c-1.4,0.03-3.28,0.04-5.2,0.04c1.77-0.03-3.33-0.07-1.01-0.1
				c-6.93,0.06-3.43,0.05-8.01,0.15l-1.06-0.05c-1.56,0.04-1.69,0.07-5.2,0.08c2.87-0.04-2.24-0.07,0.98-0.13
				c-7.35-0.11-10.92,0.11-14.3-0.05c-3.38,0.13,6.37,0.07,4.47,0.1c1.58,0.04-2.79,0.1-5.1,0.09c-2.35,0-4-0.17-9.91-0.17
				c0.59,0,0.63,0,1.21-0.01c-2.21-0.03-4.33,0.05-7.05-0.01c-1.52,0.08-3.52,0-3.96,0.1l5.42-0.02c-3.07,0.03-5.96,0.15-11.02,0.09
				c0.39-0.02,1.9-0.05,2.94-0.06c-1.48-0.03-2.85,0.02-4.39-0.01c0.44-0.1,6.59-0.02,9.88-0.1c-1.59-0.04-6.23,0.07-4.57-0.04
				c-2.38,0.14-5.82-0.02-9.83,0.09l0.26-0.06c-0.63,0.01-1.95,0.04-3.11,0.04l2.11-0.08c-3.24,0.07-6.25-0.06-9.36-0.02
				c6.51,0,1.46,0.07,4.21,0.12c-8.03,0.08-4.62-0.16-13.6-0.13c1.22-0.01,4.57,0.04,2.66,0.07c-1.71-0.01-3.97-0.04-5.02-0.07
				c-5.95,0.01,0.91,0.06-1.62,0.1c-2.03-0.07-2.92,0.03-5.53,0.05l-0.02-0.06c-6.78-0.04-1.8,0.13-7.91,0.08l2.58-0.09l-3.18,0.02
				l0.66-0.07c-3.46,0.05-4.54,0.04-7.94,0.02c0.79,0.04-0.44,0.11-3.45,0.12c-2.05-0.04,1.15-0.06-3.11-0.05
				c0.96-0.04,2.02-0.09,3.87-0.03c0.19-0.02,0.95-0.04,1.14-0.06c-2.21-0.04-5.55-0.01-7.09-0.01c0.59,0,1.3,0.01,1.67,0.01
				l-6.18,0.09c-0.97-0.02-0.2-0.04,0.56-0.06c-1.25,0.01-2.12,0.04-3.96,0.04c0.48-0.05,0.36-0.1,2.97-0.13l-5.88,0.06
				c-0.39-0.02-3.02-0.06-2.26-0.08c-3.26-0.03-8,0.1-12.33,0.06c-0.22,0.01-0.68,0.02-1.59,0.03c-4.06-0.01-7.67-0.07-12.48,0
				l-2.73-0.09c-3.77,0.02,3.7,0.11-2.58,0.15c-4.45,0.03-1.66-0.08-3.22-0.1c-2.21,0.05-6.06,0.14-10.14,0.07
				C398.6,0.17,399.66,0.18,400.92,0.18z M354.39,0.22c0.9-0.01,2.7-0.05,3.36-0.02C356.72,0.27,355.93,0.24,354.39,0.22z
				 M283.66,0.37c0.67-0.02,1.71-0.01,2.88,0.01C285.69,0.39,284.72,0.38,283.66,0.37z M86.62,0.8c0.04,0,0.06,0,0.1,0
				C88.72,0.82,88.01,0.81,86.62,0.8z M82.44,0.78c-0.42,0.01-0.39,0.02-0.21,0.03c0.29-0.02,1.23-0.02,2.3-0.01
				C84.23,0.77,83.69,0.76,82.44,0.78z M530.93,0.75l-0.81-0.02C531.95,0.72,531.44,0.73,530.93,0.75z"/>
			<path d="M291.68,0.28c0.26,0.01,0.33,0.02,0.39,0.03C292.42,0.3,292.43,0.29,291.68,0.28z"/>
			<path d="M429.86,0.14l0.14,0c0.08,0,0.12-0.01,0.14-0.01L429.86,0.14z"/>
			<path d="M147.13,0.24c0.86,0.01,1.34,0.02,1.66,0.03C148.84,0.26,148.45,0.25,147.13,0.24z"/>
			<path d="M60.31,0.88l2.68-0.02c-1.29,0-1.76-0.01-2.41-0.02C60.63,0.86,61.15,0.88,60.31,0.88z"/>
			<path d="M37.09,0.49c-0.4,0-0.82,0.01-1.21,0.01l0.11,0.03C37.65,0.53,38.81,0.51,37.09,0.49z"/>
			<path d="M733.08,0.53c-0.15,0.02,0.8,0.05,0.98,0.08l1.75-0.02C734.91,0.58,733.2,0.56,733.08,0.53z"/>
			<path d="M734.06,0.61l-2.62,0.03C733.78,0.65,734.21,0.63,734.06,0.61z"/>
			<polygon points="723.06,0.53 724.55,0.49 721.9,0.55 			"/>
			<path d="M716.41,0.54c1.1-0.04-1.51-0.06-0.35-0.09c-1.81,0.01-3.35,0.04-4.74,0.07C712.8,0.5,714.37,0.51,716.41,0.54z"/>
			<path d="M708.99,0.56c0.73-0.01,1.5-0.03,2.33-0.04C710.54,0.53,709.77,0.54,708.99,0.56z"/>
			<path d="M726.96,0.64c-0.2-0.01-0.59-0.04-2.07-0.06l1.03,0.06C726.24,0.64,726.6,0.64,726.96,0.64z"/>
			<path d="M725.97,0.64l-0.04,0c-1.12,0-1.9,0-2.23,0C723.98,0.63,724.67,0.63,725.97,0.64z"/>
			<path d="M727.22,0.64c-0.1,0-0.17,0-0.26,0C727.06,0.64,727.12,0.64,727.22,0.64z"/>
			<path d="M738.32,0.7c-1.54,0.03-4.76,0.06-1.65,0.11C737.78,0.78,736,0.75,738.32,0.7z"/>
			<path d="M728.51,0.71l2.79,0.01c-0.05-0.01-0.56-0.04,0.21-0.05L728.51,0.71z"/>
			<polygon points="727.14,0.72 728.51,0.71 727.47,0.7 			"/>
			<path d="M713.77,0.61c-1.2,0.02-2.52,0.03-4.01,0.03c1.6,0.01,3.24,0.01,4.81,0.02C714.79,0.64,715.48,0.61,713.77,0.61z"/>
			<path d="M719.7,0.63c-0.08,0-0.19,0-0.27,0C719.59,0.64,719.72,0.64,719.7,0.63z"/>
			<path d="M695.11,0.64c0.08,0,0.15,0.01,0.24,0.01l0.05-0.01L695.11,0.64z"/>
			<path d="M714.84,0.67c1.2,0.01,1.92,0,2.6-0.02c-0.9,0-1.85,0.01-2.87,0.01C714.47,0.67,714.45,0.67,714.84,0.67z"/>
			<path d="M704.91,0.59c0.63,0.01,1.33,0.02,2.08,0.03C706.37,0.6,705.13,0.57,704.91,0.59z"/>
			<path d="M719.02,0.62c0.06,0,0.11,0,0.18,0C718.81,0.6,718.86,0.61,719.02,0.62z"/>
			<path d="M719.02,0.62c-0.61,0.01-1.1,0.02-1.59,0.03c0.73-0.01,1.4-0.01,1.99-0.02C719.28,0.63,719.14,0.62,719.02,0.62z"/>
			<path d="M690.67,1c0.21-0.05,3.36-0.1,6.08-0.04c2.68-0.04,0.93-0.21-1.41-0.3c-0.08,0.02-0.08,0.04-2.84,0.07
				c0.96,0.03,6.11,0.07,3.79,0.11c-3.65,0.03-2.99-0.02-4.76-0.05c1.51,0.06-4.64,0.09-3.85,0.19l3.2-0.03
				C690.94,0.96,689.78,0.99,690.67,1z"/>
			<path d="M700.59,0.66l1.13-0.01c-1.29-0.01-2.22-0.03-3.92-0.07c-1.89,0.03-2.28,0.04-2.41,0.06l5.58,0.01L700.59,0.66z"/>
			<path d="M706.82,0.65c-0.89,0.06-3.61,0.08-1.94,0.14c3.33,0,2.33-0.05,4.32-0.07c-5.37,0.01,1.54-0.03-2.34-0.06
				c1.06-0.01,2.01-0.01,2.9-0.01c-0.97-0.01-1.9-0.02-2.78-0.03c0.05,0,0.08,0,0.12,0l0.03,0l-0.01,0
				c0.23,0.01,0.31,0.01,0.05,0.01c-0.02,0-0.08,0-0.11,0C707.02,0.64,706.92,0.65,706.82,0.65c-1.55-0.01-0.24-0.01,0.24-0.02
				c0.02,0,0.06-0.01,0.07-0.01c0,0-0.01,0-0.02,0l-5.38,0.03C702.87,0.66,704.29,0.66,706.82,0.65z"/>
			<path d="M733.81,0.93c-0.17,0-0.16-0.01-0.17-0.01C733.29,0.93,733.16,0.93,733.81,0.93z"/>
			<path d="M731.6,0.9c0.39-0.01,0.72-0.03,1.99-0.02c1.1,0.02-0.01,0.03,0.05,0.05c0.77-0.01,2.68-0.04,0.28-0.07l-0.38,0.01
				c-2.17-0.02-4.95-0.09-4.57-0.1C729.6,0.81,730.15,0.85,731.6,0.9z"/>
			<path d="M719.05,0.79l-4.48,0.03l2.28,0.05l-0.12-0.03C719.29,0.85,718.74,0.81,719.05,0.79z"/>
			<polygon points="694.6,0.62 695.19,0.56 692.6,0.64 			"/>
			<polygon points="688.78,0.62 688.99,0.57 687.45,0.6 			"/>
			<path d="M701.35,0.96c0.4,0,0.82-0.01,1.21-0.01l-0.11-0.03C700.8,0.92,699.63,0.95,701.35,0.96z"/>
			<path d="M57.83,0.67c-0.21-0.05-1.89-0.03-3.76-0.02c0.11,0,0.22,0,0.33,0C53.85,0.72,55.84,0.7,57.83,0.67z"/>
			<path d="M53.63,0.65c-0.58,0-1.17,0-1.73,0C51.68,0.68,52.6,0.66,53.63,0.65z"/>
			<path d="M77.14,0.81c-0.89-0.01-0.56,0.07-1.06,0.05C75.09,0.92,82.01,0.77,77.14,0.81z"/>
			<polygon points="56.31,0.5 56.99,0.57 58.04,0.51 			"/>
			<path d="M71.11,0.55l-2.99-0.02c0.05,0.01-0.34,0.02-0.8,0.02C69.16,0.55,71.18,0.57,71.11,0.55z"/>
			<path d="M67.31,0.55c-0.96,0-1.88,0-2.41,0.01C65.42,0.56,66.54,0.56,67.31,0.55z"/>
			<polygon points="60.41,0.48 61.29,0.49 63.41,0.5 			"/>
			<path d="M103.3,0.56l3.27-0.02c0.33-0.02-0.56-0.04-1.77-0.03C104.01,0.53,102.8,0.54,103.3,0.56z"/>
			<path d="M93.42,0.38c0.88,0.01,0.94,0.03,1.44,0.05l0.1-0.08L93.42,0.38z"/>
			<path d="M102.95,0.36c0.33-0.02,4.74-0.06,0.6-0.06C103.21,0.33,99.94,0.35,102.95,0.36z"/>
			<polygon points="152.18,0.47 151.35,0.47 151.47,0.6 			"/>
			<path d="M195.58,0.15c-3.87-0.03-0.92,0.08-4.42,0.04c-0.91,0.03,2.86,0.03,1.93,0.06C195.43,0.22,196.66,0.24,195.58,0.15z"/>
			<path d="M193.09,0.25c-0.37,0.01-0.77,0.01-1.19,0.02C192.57,0.26,192.89,0.25,193.09,0.25z"/>
			<polygon points="682.96,0.82 685.46,0.84 683.85,0.8 			"/>
			<path d="M347.47,0.05l-0.19,0.02c0.39,0.02,0.97,0.02,2.14,0.03L347.47,0.05z"/>
			<polygon points="381.25,0.11 380.66,0.11 381.75,0.18 			"/>
			<path d="M409.59,0.01c-1.16,0-2.52,0.01-3.68,0.01C408.43,0.01,409.9,0.11,409.59,0.01z"/>
		</g>
	</g>
	<path d="M12.89,0.77c-0.15,0.04,0.8,0.09,0.98,0.14l1.75-0.04C14.72,0.85,13.01,0.83,12.89,0.77z"/>
	<path d="M13.87,0.81l-2.62,0.06C13.59,0.88,14.02,0.85,13.87,0.81z"/>
	<polygon points="1.16,0.86 2.65,0.78 0,0.9 	"/>
	<path d="M5.07,0.89C4.86,0.87,4.47,0.82,3,0.79l1.03,0.1C4.35,0.89,4.71,0.89,5.07,0.89z"/>
	<path d="M4.07,0.85l-0.04,0c-1.12,0-1.9,0-2.23-0.01C2.09,0.84,2.77,0.84,4.07,0.85z"/>
	<path d="M7.03,0.84c-0.1,0-0.17,0-0.26,0C6.87,0.85,6.93,0.85,7.03,0.84z"/>
	<path d="M18.13,0.74c-1.54,0.06-4.76,0.11-1.65,0.2C17.59,0.88,15.81,0.83,18.13,0.74z"/>
	<path d="M8.32,0.87l2.79,0.02c-0.05-0.03-0.56-0.06,0.21-0.09L8.32,0.87z"/>
	<polygon points="6.95,0.86 8.32,0.83 7.28,0.82 	"/>
	<path d="M13.62,0.86c-0.17-0.01-0.16-0.02-0.17-0.02C13.1,0.84,12.97,0.85,13.62,0.86z"/>
	<path d="M11.41,0.95c0.39-0.01,0.72-0.05,1.99-0.04c1.1,0.03-0.01,0.05,0.05,0.08c0.77-0.03,2.68-0.07,0.28-0.12l-0.38,0.01
		C11.18,0.84,8.4,0.72,8.78,0.7C9.41,0.79,9.97,0.86,11.41,0.95z"/>
</g>
</svg>
