<svg width="157" height="75" viewBox="0 0 157 75" fill="none" xmlns="http://www.w3.org/2000/svg">
<path d="M54.3571 74.8636L51.1748 66.9428H52.0323L54.7556 73.8782L57.485 66.9428H58.3183L55.1179 74.8636H54.3571Z" fill="white"/>
<path d="M65.1672 74.8637V73.8348H65.1491C64.6781 74.56 63.8568 75 62.9269 75C61.218 75 59.8594 73.6737 59.8594 71.9197C59.8594 70.1657 61.2543 68.858 62.9269 68.858C63.8749 68.858 64.6901 69.298 65.1491 70.0356H65.1672V69.0067H65.8978V74.8575H65.1672V74.8637ZM65.2095 71.9445C65.2095 70.6367 64.2071 69.5397 62.9148 69.5397C61.6226 69.5397 60.59 70.5686 60.59 71.9569C60.59 73.3452 61.5803 74.3306 62.9269 74.3306C64.201 74.3306 65.2095 73.2584 65.2095 71.9445Z" fill="white"/>
<path d="M74.3762 74.8637V73.8348H74.358C73.887 74.56 73.0658 75 72.1359 75C70.427 75 69.0684 73.6737 69.0684 71.9197C69.0684 70.1657 70.4632 68.858 72.1359 68.858C73.0839 68.858 73.8991 69.298 74.358 70.0356H74.3762V69.0067H75.1068V74.8575H74.3762V74.8637ZM74.4184 71.9445C74.4184 70.6367 73.416 69.5397 72.1238 69.5397C70.8316 69.5397 69.799 70.5686 69.799 71.9569C69.799 73.3452 70.7893 74.3306 72.1359 74.3306C73.41 74.3306 74.4184 73.2584 74.4184 71.9445Z" fill="white"/>
<path d="M78.6953 74.8636V66.9428H79.4682V74.1447H82.6565V74.8636H78.6953Z" fill="white"/>
<path d="M85.8935 72.2048C85.9539 73.37 86.9985 74.3245 88.1036 74.3245C88.9912 74.3245 89.8366 73.7977 90.1446 72.9424H90.9175C90.4767 74.2067 89.3354 74.9939 88.1096 74.9939C86.4913 74.9939 85.1387 73.6427 85.1387 71.9321C85.1387 70.2215 86.5034 68.8518 88.1036 68.8518C89.8124 68.8518 91.0986 70.3579 91.0986 71.9755C91.0986 72.0499 91.0866 72.1243 91.0866 72.1986H85.8935V72.2048ZM90.3438 71.5293C90.1325 70.3517 89.2267 69.5274 88.1036 69.5274C87.0408 69.5274 86.0927 70.3207 85.8935 71.5293H90.3438Z" fill="white"/>
<path d="M99.3664 74.8637V73.8348H99.3483C98.8773 74.56 98.0561 75 97.1261 75C95.4172 75 94.0586 73.6737 94.0586 71.9197C94.0586 70.1657 95.4535 68.858 97.1261 68.858C98.0742 68.858 98.8894 69.298 99.3483 70.0356H99.3664V69.0067H100.097V74.8575H99.3664V74.8637ZM99.4087 71.9445C99.4087 70.6367 98.4063 69.5397 97.1141 69.5397C95.8218 69.5397 94.7893 70.5686 94.7893 71.9569C94.7893 73.3452 95.7796 74.3306 97.1261 74.3306C98.4002 74.3306 99.4087 73.2584 99.4087 71.9445Z" fill="white"/>
<path d="M108.98 74.8636L104.403 67.8973H104.385V74.8636H103.612V66.9428H104.657L108.962 73.5125H108.98V66.9428H109.753V74.8636H108.98Z" fill="white"/>
<path d="M148.845 13.0215H149.183C149.509 13.0463 149.654 13.195 149.727 13.5917C149.799 13.945 149.854 14.1929 149.902 14.2734H150.27C150.216 14.1681 150.155 13.8954 150.071 13.4987C150.011 13.2012 149.884 12.9967 149.672 12.9161V12.9037C149.968 12.8107 150.204 12.5628 150.21 12.191C150.21 11.974 150.137 11.7757 150.004 11.6456C149.835 11.4844 149.588 11.4038 149.207 11.3976C148.96 11.3976 148.7 11.41 148.519 11.4472L148.471 14.2486H148.827L148.851 13.0215H148.845ZM148.869 11.7075C148.924 11.6889 149.05 11.6765 149.226 11.6827C149.606 11.6951 149.86 11.8625 149.854 12.2282C149.854 12.5504 149.6 12.7612 149.219 12.755H148.851L148.869 11.7137V11.7075Z" fill="white"/>
<path d="M149.249 15.2962C149.249 15.2962 149.279 15.2962 149.297 15.2962C149.913 15.2962 150.493 15.0607 150.94 14.6269C151.393 14.1806 151.652 13.5856 151.664 12.9473C151.688 11.6271 150.644 10.5363 149.339 10.5053C149.327 10.5053 149.309 10.5053 149.297 10.5053C148.011 10.5053 146.954 11.5527 146.93 12.8543C146.918 13.4927 147.154 14.1 147.594 14.5587C148.035 15.0173 148.621 15.2776 149.255 15.29L149.249 15.2962ZM149.291 10.7222H149.333C150.523 10.747 151.471 11.7387 151.453 12.9473C151.441 13.5298 151.205 14.0753 150.795 14.4781C150.378 14.881 149.829 15.0917 149.261 15.0855C148.687 15.0731 148.15 14.8376 147.745 14.4161C147.347 13.9947 147.129 13.4431 147.141 12.8605C147.166 11.6705 148.126 10.7222 149.297 10.7222H149.291Z" fill="white"/>
<path d="M156.303 20.4962C155.904 20.4404 155.512 20.7069 155.379 21.1284L155.246 21.5498C152.486 30.3569 145.897 51.225 144.285 54.702C144.231 54.8198 144.104 54.8941 143.977 54.8755C143.844 54.8569 143.741 54.7578 143.717 54.6276C143.174 51.8572 143.325 44.9466 143.433 39.9016C143.645 30.1958 143.621 26.13 142.509 24.9586C142.473 24.9214 141.525 24.0104 140.51 25.064C139.007 26.6259 136.639 34.15 133.469 47.4258L133.366 47.8596L133.076 47.5249C130.069 44.0169 127.134 36.437 124.773 30.3445C121.252 21.2523 119.078 15.9718 116.384 15.9718C116.276 15.9718 116.161 15.978 116.046 15.9966C115.122 16.1453 113.939 16.8209 113.033 20.7999C112.054 25.0888 111.589 32.3093 111.608 42.8765C111.608 42.8889 111.65 44.457 111.191 46.2358C110.593 48.5599 109.409 50.1652 107.767 50.8841C104.977 52.1051 100.864 50.3201 97.9049 48.6033L97.603 48.4298L97.8808 48.2129C106.589 41.4944 110.581 35.8854 109.754 31.5407C108.938 27.289 103.557 25.7953 103.503 25.7829C99.2637 24.562 95.7429 24.8719 93.0253 26.6878C88.8644 29.4707 88.031 34.9123 88.019 34.9681C88.0069 35.0611 86.6541 43.9302 94.0278 48.0703L94.4204 48.2934L94.0157 48.4918C90.0843 50.4131 86.7991 50.816 84.2506 49.6818C81.4968 48.4608 80.6513 45.8949 80.6211 45.7895L80.5909 45.6966L80.6332 45.6098C85.0477 36.5734 87.7774 18.6926 87.7895 9.85454C87.8016 3.415 86.7447 0.19833 84.5586 0.0123956C84.4801 0.00619782 84.4016 0 84.3231 0C80.4339 0 78.3504 8.28029 77.4566 13.2138C75.7053 22.8576 75.3611 37.0568 78.7369 45.4362L78.7792 45.5416L78.7309 45.6408C77.4144 48.1509 76.1824 49.4648 75.0591 49.5578C75.0048 49.5578 74.9444 49.5578 74.89 49.5578C70.9948 49.5578 68.1142 39.1393 66.0126 31.5345C63.8204 23.6013 62.214 17.7816 59.3515 17.7816C59.2428 17.7816 59.1281 17.7878 59.0194 17.8063C56.3863 18.2216 55.1483 22.8824 55.0215 32.9042C54.9853 35.5817 55.0396 38.5629 55.1846 41.7547L55.2389 42.9571L54.7498 41.8663C52.8112 37.5154 51.3679 32.6439 50.0936 28.3488C48.0041 21.3081 46.7178 17.2857 44.5921 16.4428C44.121 16.2569 43.3782 16.1453 42.5086 16.6721C40.0446 18.1596 38.8851 27.1651 39.0542 43.4406C39.0542 43.8992 39.4347 44.2773 39.8876 44.2773C40.1232 44.2773 40.3285 44.1905 40.4855 44.0231C40.6365 43.862 40.721 43.6513 40.721 43.4343C40.6365 35.1912 40.9143 28.6773 41.5544 24.0785C42.0255 20.7069 42.6837 18.5315 43.3601 18.1224C43.6741 17.9365 43.8493 17.9613 43.9821 18.0171C45.4556 18.5997 47.0016 23.8058 48.4933 28.8385C51.0116 37.3357 54.1519 47.9154 60.3238 52.6195C60.4688 52.7311 60.6439 52.7869 60.8251 52.7869C61.1451 52.7869 61.429 52.6071 61.5739 52.3158C61.749 51.9564 61.6222 51.4977 61.2659 51.225C61.2418 51.2064 58.9046 49.3781 57.1412 46.4465L57.111 46.3721C56.5434 42.0708 56.6762 33.022 56.6762 32.929C56.803 23.2542 58.0652 20.5334 58.808 19.7711C59.0798 19.4922 59.5146 19.4674 59.8105 19.7277C60.1728 20.0376 60.7707 20.8123 61.5377 22.7212C62.4979 25.1074 63.4158 28.4418 64.3941 31.9746V31.9932C67.0151 41.4634 69.7206 51.256 74.8478 51.256C74.884 51.256 77.2574 51.4729 79.4556 47.7418L79.6851 47.3576L79.8602 47.7666C79.8602 47.7666 81.0197 50.3883 84.0996 51.5101C87.2158 52.6443 91.1593 51.9564 95.8154 49.4648L95.9362 49.4029L96.0509 49.4772C96.1234 49.5268 103.268 54.3425 108.304 52.5018C110.442 51.7208 111.928 49.8739 112.719 47.0167C113.317 44.8537 113.268 42.9199 113.268 42.8951C113.256 36.1271 113.498 20.1429 115.98 17.8559C116.155 17.6948 116.409 17.6514 116.632 17.7444C117.121 17.8373 118.993 19.0831 123.221 30.9767C125.479 37.3357 128.934 46.1862 132.811 49.6446L132.913 49.7375L132.883 49.8739C132.4 51.9254 131.349 56.5675 131.337 56.6171C131.289 56.834 131.325 57.0572 131.44 57.2493C131.555 57.4414 131.742 57.5778 131.965 57.6274C132.026 57.6398 132.086 57.646 132.152 57.646C132.545 57.646 132.877 57.3733 132.962 56.989C133.209 55.9106 138.995 30.5987 140.951 27.4873C140.982 27.4502 141.108 27.2952 141.302 27.2952H141.32C141.416 27.3014 141.543 27.351 141.64 27.5431L141.664 27.6113C141.67 27.6609 142.081 31.5035 141.706 42.4117C141.35 52.855 141.912 57.0572 143.705 57.398C143.856 57.4476 144.019 57.429 144.2 57.3547C144.696 57.1315 145.469 56.394 146.326 54.107C146.61 53.3075 153.398 34.3545 156.967 21.5932C157.033 21.3453 156.997 21.085 156.87 20.8743C156.744 20.6697 156.538 20.5334 156.291 20.4962H156.303ZM79.7454 43.5149L79.5582 42.9447C79.516 42.8146 75.3973 29.669 79.9145 9.80496C79.987 9.51366 81.7142 2.72084 83.7614 1.82836C83.9366 1.7106 84.5103 1.51227 84.927 2.03908C84.9813 2.10726 86.2193 3.74968 86.1408 9.86074C86.1408 10.0529 85.8389 29.4707 79.981 42.9633L79.7454 43.5149ZM96.0328 47.4196L95.912 47.3514C88.0371 42.765 89.6616 35.3152 89.6797 35.2408C89.6797 35.2036 90.3198 30.4127 94.0459 28.039C96.6307 26.3903 100.037 26.2974 104.173 27.7663C104.3 27.8096 107.265 28.8447 107.894 31.7886C108.516 34.7078 106.589 38.3583 102.162 42.6348C99.8616 44.8598 96.1717 47.3266 96.1355 47.3514L96.0207 47.4258L96.0328 47.4196Z" fill="white"/>
<path d="M34.9662 24.8842C34.5193 24.7788 34.0724 25.0701 33.9758 25.5287C31.5481 36.691 26.7168 55.4332 21.6199 55.551C18.5097 55.551 15.4117 45.8204 12.9176 38.005C9.59003 27.5616 7.36162 21.1283 3.94955 21.1283C3.91935 21.1283 3.88916 21.1283 3.85896 21.1283C0.0845468 21.2708 0 28.2062 0 28.9995C0 29.4644 0.374422 29.8424 0.833391 29.8424C1.05684 29.8424 1.2682 29.7557 1.42522 29.5945C1.58223 29.4334 1.66678 29.2227 1.66678 28.9995C1.66074 27.01 2.20426 22.8823 3.92539 22.8203C6.3229 22.8203 9.10087 31.5282 11.3293 38.5256C14.9346 49.8304 17.5978 57.243 21.5776 57.243H21.6561C22.9484 57.212 24.9534 56.648 27.4355 52.1112C30.153 47.1344 32.9008 38.3149 35.6003 25.9006C35.6486 25.6837 35.6124 25.4606 35.4916 25.2746C35.3708 25.0825 35.1836 24.9462 34.9662 24.8966V24.8842Z" fill="white"/>
</svg>
