<?xml version="1.0" encoding="utf-8"?>
<!-- Generator: Adobe Illustrator 26.3.1, SVG Export Plug-In . SVG Version: 6.00 Build 0)  -->
<svg version="1.1" id="Layer_1" xmlns="http://www.w3.org/2000/svg" xmlns:xlink="http://www.w3.org/1999/xlink" x="0px" y="0px"
	 viewBox="0 0 1.8 561.72" style="enable-background:new 0 0 1.8 561.72;" xml:space="preserve">
<g>
	<g>
		<path d="M0.02,4.29c0.04,0.12,0.1-0.65,0.15-0.8L0.13,2.05C0.1,2.79,0.08,4.19,0.02,4.29z"/>
		<path d="M0.17,3.49l0.07,2.15C0.25,3.72,0.22,3.37,0.17,3.49z"/>
		<polygon points="0.02,12.49 -0.07,11.27 0.06,13.44 		"/>
		<path d="M0.03,17.94c-0.07-0.9-0.12,1.24-0.17,0.28C-0.12,19.7-0.06,20.96,0,22.1C-0.03,20.89-0.02,19.6,0.03,17.94z"/>
		<path d="M0.08,24C0.05,23.41,0.03,22.78,0,22.1C0.02,22.74,0.04,23.37,0.08,24z"/>
		<path d="M0.22,9.3C0.2,9.46,0.14,9.78,0.11,10.99l0.11-0.84C0.22,9.89,0.22,9.59,0.22,9.3z"/>
		<path d="M0.22,10.11l0,0.03c0,0.92-0.01,1.55-0.01,1.83C0.21,11.73,0.22,11.18,0.22,10.11z"/>
		<path d="M0.22,9.08c0,0.08,0,0.14,0,0.21C0.23,9.22,0.23,9.17,0.22,9.08z"/>
		<path d="M0.35,0c0.06,1.26,0.12,3.89,0.21,1.35C0.49,0.44,0.44,1.9,0.35,0z"/>
		<path d="M0.35,8.03l0.02-2.28C0.35,5.8,0.31,6.21,0.28,5.58L0.35,8.03z"/>
		<polygon points="0.39,9.15 0.35,8.03 0.35,8.88 		"/>
		<path d="M0.18,20.09c0.05,0.99,0.05,2.06,0.06,3.28c0.01-1.31,0.02-2.66,0.03-3.94C0.24,19.26,0.18,18.7,0.18,20.09z"/>
		<path d="M0.21,15.24c0,0.07,0,0.15,0.01,0.22C0.23,15.33,0.23,15.22,0.21,15.24z"/>
		<path d="M0.24,35.37c0.01-0.07,0.01-0.13,0.02-0.19l-0.02-0.04L0.24,35.37z"/>
		<path d="M0.29,19.22c0.02-0.98-0.01-1.57-0.04-2.13c0.01,0.73,0.01,1.51,0.02,2.35C0.29,19.52,0.3,19.54,0.29,19.22z"/>
		<path d="M0.13,27.35c0.02-0.51,0.04-1.09,0.06-1.7C0.16,26.15,0.1,27.17,0.13,27.35z"/>
		<path d="M0.19,15.79c0-0.05,0-0.09,0-0.15C0.16,15.97,0.17,15.93,0.19,15.79z"/>
		<path d="M0.19,15.79c0.02,0.5,0.05,0.9,0.07,1.3c-0.01-0.6-0.03-1.15-0.04-1.63C0.21,15.58,0.19,15.7,0.19,15.79z"/>
		<path d="M0.92,39c-0.1-0.17-0.19-2.75-0.08-4.98c-0.07-2.19-0.4-0.76-0.58,1.15c0.04,0.07,0.08,0.07,0.14,2.32
			c0.05-0.79,0.13-5,0.22-3.1c0.05,2.99-0.04,2.45-0.09,3.9c0.12-1.23,0.18,3.8,0.36,3.15l-0.06-2.62C0.85,38.78,0.9,39.73,0.92,39z
			"/>
		<path d="M0.27,30.88l-0.01-0.93c-0.02,1.06-0.06,1.82-0.13,3.21c0.05,1.54,0.09,1.86,0.12,1.97l0.01-4.57L0.27,30.88z"/>
		<path d="M0.25,25.78c0.11,0.72,0.15,2.95,0.27,1.59c-0.01-2.72-0.09-1.91-0.14-3.53c0.03,4.39-0.06-1.26-0.12,1.91
			c-0.01-0.87-0.02-1.64-0.03-2.37c-0.02,0.79-0.03,1.55-0.05,2.27c0-0.04,0-0.07,0.01-0.1l0-0.02l0,0
			c0.01-0.19,0.02-0.25,0.01-0.04c0,0.02,0,0.07,0,0.09C0.23,25.62,0.24,25.7,0.25,25.78c-0.02,1.27-0.03,0.2-0.04-0.2
			c-0.01-0.01-0.01-0.05-0.02-0.05c0,0,0,0.01,0,0.02l0.06,4.4C0.27,29.02,0.27,27.85,0.25,25.78z"/>
		<path d="M0.79,3.7C0.79,3.83,0.78,3.83,0.77,3.84C0.78,4.12,0.79,4.23,0.79,3.7z"/>
		<path d="M0.73,5.51C0.71,5.19,0.67,4.92,0.68,3.88c0.03-0.9,0.05,0,0.09-0.04C0.74,3.21,0.69,1.64,0.64,3.61l0.01,0.31
			C0.62,5.69,0.48,7.97,0.47,7.66C0.57,7.14,0.63,6.69,0.73,5.51z"/>
		<path d="M0.52,15.77l0.05,3.67l0.09-1.87l-0.06,0.09C0.63,15.58,0.56,16.03,0.52,15.77z"/>
		<polygon points="0.18,35.79 0.07,35.3 0.23,37.42 		"/>
		<polygon points="0.2,40.55 0.1,40.37 0.16,41.63 		"/>
		<path d="M1.43,309.35l0.03,1.08C1.44,309.92,1.43,309.59,1.43,309.35z"/>
		<path d="M1.43,301.55l-0.05-0.19C1.41,301.72,1.43,301.87,1.43,301.55z"/>
		<path d="M0.21,157.54c-0.09,1.57-0.24,3.32-0.12,3.13l0.11-0.48C0.17,159.09,0.19,158.25,0.21,157.54z"/>
		<path d="M0.86,237.66c0.01-0.15,0.02-0.3,0.03-0.46c-0.04-0.38-0.07-0.74-0.1-1.06C0.81,236.59,0.83,237.11,0.86,237.66z"/>
		<path d="M1.31,238.76l-0.07,2.07C1.25,240.36,1.27,239.7,1.31,238.76z"/>
		<path d="M1.54,351.94l0.11,1.26C1.65,351.23,1.59,352.09,1.54,351.94z"/>
		<path d="M0.24,89.34c-0.04,1.35-0.06,2.43-0.07,3.38C0.23,91.08,0.33,89.77,0.24,89.34z"/>
		<path d="M0.27,306.28c0.02,0.66,0.04,0.94,0.07,0.92C0.32,306.52,0.3,306.14,0.27,306.28z"/>
		<path d="M0.17,96.62c0.01-0.24,0.02-0.47,0.03-0.72c-0.02-0.99-0.03-1.99-0.03-3.19C0.13,93.92,0.1,95.3,0.17,96.62z"/>
		<path d="M1.45,506.38c0,0.11-0.01,0.25-0.01,0.35C1.45,506.77,1.45,506.61,1.45,506.38z"/>
		<path d="M0.36,551.38c0-0.44-0.01-1.17-0.01-1.85C0.34,549.87,0.34,550.42,0.36,551.38z"/>
		<path d="M0.15,59.72C0.14,58.71,0.14,59.56,0.15,59.72L0.15,59.72z"/>
		<path d="M0.58,54.8c0.01,0.21,0.03,0.38,0.05,0.4C0.61,55.12,0.59,54.98,0.58,54.8z"/>
		<path d="M0.85,106.69c0,0.03,0,0.05,0,0.09C0.87,106.47,0.86,106.53,0.85,106.69z"/>
		<path d="M0.2,58.2c-0.01,0.38-0.02,0.82-0.03,1.29C0.17,59.28,0.18,58.88,0.2,58.2z"/>
		<path d="M0.15,58.4c0-0.35,0.01-0.62,0.01-0.88C0.14,57.39,0.13,57.5,0.15,58.4z"/>
		<path d="M0.16,61.12c0-0.58,0.01-1.12,0.01-1.64c-0.01,0.2-0.01,0.28-0.02,0.23C0.15,60.01,0.15,60.43,0.16,61.12z"/>
		<path d="M1.16,423.63c0,0.07-0.01,0.14-0.01,0.22C1.19,424.87,1.19,424.42,1.16,423.63z"/>
		<path d="M1.34,183.83c0-0.05,0-0.07-0.01-0.12c0,0.05,0,0.11,0,0.15L1.34,183.83z"/>
		<path d="M1.42,187.46c-0.14-1.55-0.12-2.42-0.09-3.59l-0.31,1.2L1.42,187.46z"/>
		<path d="M1.46,328.02l0.1-2.55c0.16,3.08,0.11,5.3,0.24,2.91c-0.34-0.36-0.03-9.9-0.37-10.26l0.07-1.68
			c0.01,0.48,0.01,0.56,0.01,1.03c0.16-3.27-0.25-2.43-0.2-6.64c0.03-1.47,0.08-2.49,0.12-1.49l-0.08-3.27
			c0.01-0.95,0.07-0.72,0.06,0.23l-0.03-4.99l0.01,0.04c-0.04-0.73-0.13-2.33-0.17-3.11c0.05-1.27,0.04,0.64,0.08,0.31l-0.08-2.76
			c0.09-1.12,0.17,1.16,0.16,3.07c0.34-2.58-0.09-2.29,0.11-7.85l0.04,2.61c0.19-1.68,0.12-3.71,0.24-6.66
			c-0.06,0.7-0.3,5.9-0.39,2.9c0.03-0.84,0.04-1.96-0.03-3.57c0.12-0.02,0.09-1.59,0.08-3.57l0.16,0.13
			c-0.05-2.13-0.13-1.97-0.2-3.22c0.02-2.38,0.14-2.87,0.24-3.43c0.03-3.81-0.2,2.63-0.23-1.88c0.06-3.17,0-5.39-0.1-9.19
			c0.06-2.22,0.1,0.39,0.14-0.41l-0.13-1.97c0-0.48,0.04-0.33,0.06-0.25c-0.05-1.66-0.16-0.14-0.2-2.74
			c-0.18-0.7,0.26-5.35,0.06-8.57c0.05-0.79,0.1,0.38,0.16,0.14c-0.13-4.42-0.1-3.79-0.27-7.42l0.1-3.09
			c-0.12,2.27-0.26-0.63-0.38-3.18c-0.05,0.81-0.1,1.5-0.13,1.96l-0.09-4.06c0.03-0.49,0.08-0.08,0.15,0.58
			c-0.01-0.28-0.03-0.54-0.04-0.74c0.06-1.45,0.15-0.7,0.24,0.34c-0.03,0.49-0.07,0.98-0.1,1.46c0.1,1,0.2,1.94,0.3,1.73
			c-0.02-0.26-0.03-0.77-0.04-1.33c0.03,0.26,0.05,0.43,0.07,0.31c0.02-0.14-0.02-0.56-0.06-1.23l0.18-0.92l-0.07-0.22l0.11-5.31
			c-0.18-3.8-0.44-7.11-0.52-13.14c0.13,1.5,0.21,0.32,0.37,0.4c-0.16,1.65,0.07,4.67,0.04,7.8c0.02-1.63,0.09-1.27,0.12-0.86
			l-0.15-5.58c0.13,0.13,0.09-1.18,0.15-2.64c-0.25,1.1-0.17-4.16-0.24-6.42c0.08-0.14,0.17,0.4,0.15,3.17
			c0.19-3.05-0.29-3.95-0.13-6.94c0,0.68-0.01,1.04,0.03,1.31c-0.07-1.58-0.02-5.44,0.06-4.53l0,0.67c0.03-4.49,0-13.66-0.21-14.33
			c0.03-0.04,0.26,0.59,0.3,0.86L0.61,182c0.18,0.71,0.62-2,0.72,1.72c0.03-1.07,0.06-2.39-0.01-4.64
			c-0.03,0.73-0.26,1.82-0.28,0.82c0.2-2.73,0.11-1.9,0.28-5.27c-0.04,1.09-0.33-0.12-0.32-1.85c0.04,0.27,0.28-0.14,0.31,0.49
			l-0.28-4.3c0.05,1.07,0.24,0.19,0.32-0.77c-0.06,0.45,0.01-3.71-0.02-4.86l-0.07,1.82c0.04-4.85-0.4-4.79-0.38-9.6
			c0.06,0.58,0.36,1.44,0.39-1.01c-0.14-1.12-0.69-4.97-0.8-9.22l0.08-0.82l-0.09-3.27c0.22,2.03,0.67,7.74,0.85,10.86
			c0.07-1.82,0.1-0.51,0.09-3.22c0.08-0.96,0.12,1.48,0.12,2.28l0.05-6.33c-0.17,0.28-0.17-4.84-0.31-4.6l0.17,6.87
			c-0.17,0.28-0.48-3.97-0.45-8.46c0.07-1.14,0.3,0.85,0.36,0.76c-0.06-0.58-0.11-4.26-0.07-4.67l0.09,1.9
			c0.06-2.5-0.22-4.07-0.06-7.07c0.01-1.04,0.22-3.09,0.12-3.27c-0.19,1.69-0.79,2.02-0.93,0.89c0.01-0.36,0.18-5.44,0.28-6.62
			c0.15-1.71,0.36,2.56,0.49,1.11c-0.05-0.06-0.1-1-0.12-1.4c0.04-1.09,0.14,0.45,0.12-1.91c-0.17-0.39,0.01-4.81-0.14-1.12
			c-0.05-2.31,0.04-2.46,0.03-5.17c-0.11,0.86-0.37-2.44-0.42-4.75c0.04,0.14,0.1-0.38,0.13-0.64c0.04-4.74,0.06-7.28,0.09-11.7
			c0.04-0.41,0.09-2.54,0.16-1.63c-0.03-0.64-0.09-1.22-0.09-2.58c0.15-2.64,0.02,3.04,0.2,1.03c-0.1-0.17-0.14-3.52-0.2-5.47
			c-0.15,0.6-0.03,4.48,0.03,6.43c-0.21,0.01-0.43-3.37-0.53-7.99c-0.05-3.67,0.14-1.59,0.11-2.23c0.04-6.89-0.37-5.87-0.22-11.6
			c0.13-2.27,0.27-0.1,0.36-0.61c0.05,2.99-0.09,4.59-0.08,6.62l0.06-2.49c0.04,0.95,0.08,2.95,0.04,4.03
			c0.12-1.9,0.02-11.65,0.13-16.97c-0.05-0.94-0.09-2.58-0.15-1.8l0.02,1.68c-0.11,1.55-0.15-3.17-0.2-1.04
			c-0.08-2.26-0.2-4.79-0.13-7.97l0.15-0.6c-0.04,0.07-0.09,2.08-0.04,2.97c-0.07-1.32,0.21-4.87,0.01-6.32l-0.11,2.23
			c-0.08-2.27-0.24-5.07-0.19-7.88c-0.15,1.28,0.02,0.65-0.16,2.65c0.22-1.74-0.01,7.21,0.22,4.42c-0.21,2.05-0.09,3.55-0.26,6.24
			c0.05-0.08,0.1-0.95,0.07,1.41c0.01,0.12,0.03,0.36,0.04,0.52c0,0.07,0,0.1,0,0.16c0-0.05,0-0.08,0.01-0.13
			c0.01,0.1,0.01,0.11,0-0.05c0.02-0.56,0.05-1.02,0.08-1.2c0.12,1.17,0.11,4.93,0.17,6.21c-0.02,1.4-0.06-0.59-0.11,0.18l0.09,1.9
			c-0.11,0.19-0.19,3.73-0.25,0.42l0,2.97c-0.06,1.75-0.09,4.16-0.04,5.65c-0.02,1.4,0.12,3.54,0.04,2.32l0.07,4.67l-0.03,0.04
			C0.2,85.77,0.4,90.65,0.2,95.91c0.03,1.55,0.06,3.15,0.03,5.74l-0.1,0.51c0.03,1.99-0.1,5.98,0,6.83
			c-0.26,2.15-0.06,9.66-0.1,13.16l0.13,0.13c-0.01,2.41,0.03,4.72,0.08,7.71l0.11-0.18c0.09,2.58-0.08,6.63-0.07,10.71
			c-0.04-0.28-0.03-1.31-0.01-2.04c-0.25,4.87,0.18,10.28,0,14.7c0.04,1.1,0.03,1.9,0,2.67c0-0.1,0-0.19-0.01-0.27
			c0,0.11,0,0.28,0,0.45c-0.02,0.49-0.04,0.99-0.06,1.53c0.02-0.47,0.04-0.91,0.06-1.29c0.01,0.85,0.03,2.13,0.04,3.4l-0.12,0.54
			c0,0.1,0,0.18,0,0.29c-0.04,1.24,0.06,1,0.15,0.34c0.02,0.64,0.04,1.22,0.07,1.67c-0.19,1.01,0.07,3.31-0.14,4.68
			c0.1,0.85,0.08,6.35,0.29,7.02c-0.03,0.04-0.04,0.42-0.04-0.27c-0.02,1.41-0.05,2.81,0.01,4.08l-0.15,0.6l0.21,3.07
			c-0.09,1.87-0.15,2.64-0.27,0.79c0.18,4.48,0.07,3.63,0.25,7.44l-0.1-0.19c0,1.36,0.14,3.54,0.05,4.36
			c-0.19,3.04-0.03,15.06-0.2,22.87c0.29-1.52-0.13,3.63,0.1,3.94c-0.07,0.46-0.11,1.54-0.17,0.28c0.07,3.99-0.11,5.99,0.08,8.74
			c-0.07,0.46-0.1-0.85-0.14-0.45c0.01,0.32,0.06,1.27,0.02,1.68c-0.04,0.41-0.06-0.58-0.09-1.21c0.01,4.07,0.22,4.48,0.42,4.78
			c-0.09,2.06-0.08,3.09,0.05,4.58c-0.07,0.72-0.13,1.92-0.16-0.61c-0.01,1.42-0.1,8.7,0.06,8.84c-0.04,0.45-0.01,1.99,0.01,2.36
			c0,3.19,0,3.47-0.01,6.61l0.03-0.87c0.19,1.24,0.04,2.61,0.07,5.14l-0.02-0.07c-0.14,5.8,0.07,2.5-0.09,8.22l0.12-0.31
			c0.26,0.53-0.15,5.07-0.05,8.39l0.07-1.2c0.09,1.81-0.35,5.07-0.38,6.89c-0.02,0.4-0.04-0.63-0.05-1.18
			c-0.15,4.77,0.16,0.62,0.19,4.17c-0.08,0.66-0.22-0.84-0.23,1.55c-0.07,1.19,0.28,6.94,0.11,10.2c0.07-0.72,0.13-1.43,0.18,0.22
			c0.02,2.53-0.25,6.84-0.04,9.12c-0.02,0.32-0.03,0.44-0.05,0.46c0.05,1.93,0.09,6.28,0.2,7.45c-0.41,1.79,0.2,12.02-0.18,11.98
			l0.02,5.95l-0.04-0.16c-0.03,3.8,0.07,5.15,0.16,6.48c-0.03,0.88-0.06,0.24-0.08,0.16c-0.08,5.55-0.06,6.11,0.13,10.76l-0.12,0.48
			c0.07,1.26-0.19,8.03-0.05,13.48c-0.01-0.05-0.04-0.17-0.06-0.6c0.15,6.13-0.34,14.67,0.11,16.92l0.11,4.04
			c0.04-5.23,0.2,0.78,0.27-1.37c0.03,2.06-0.14,5.32-0.16,2.79l0.02-0.4c-0.24-0.93-0.08,6.5-0.24,6.36
			c-0.04,10.3-0.09,20.33-0.13,29.98l0.18-1.11l-0.01,3.36c-0.04,0.88-0.14,1.19-0.14-1.21c-0.05,0.63-0.03,1.64,0.01,2.49
			c0.04,0.86,0.1,1.57,0.12,1.6c-0.07,4.7-0.21-1.84-0.22-0.39l0.01,1.96l0.02-0.44c0.07,1.59,0.15,1.73,0.14,4.61
			c-0.04,1.83-0.11,0.94-0.12,1.65c-0.01,0-0.01,0.06-0.01,0.23c0,0.17,0,0.44,0.01,0.88l-0.02,4.24l0.14-1.69
			c0.07,1.88-0.01,3.99,0.16,2.03c-0.25,2.87-0.09,15.81-0.17,17.57c0.11,2.63,0.1,5.23,0.09,8.45c0.03-0.8,0.19-1.28,0.17,1.5
			c-0.33-1.01-0.15,5.08-0.39,7.32c0.16-2,0.04,7.89,0.27,4.74c-0.03,2.32-0.13,0.14-0.2,1.9c0.13,5.51-0.08,12.15-0.04,18.96
			c0.04,0.11,0.11-1.03,0.18,0.43l-0.22,3.6c0.02,1.35,0.25,1.24,0.1,3.7c0.04-0.35,0.09-0.87,0.11,0.04
			c-0.21,13.35,0.18,27.27-0.23,40.83c0.09-1.84,0.09-0.61,0.1,0.79c0.02-0.91,0.11,0.02,0.17-0.16l-0.17,5.67
			c0.17,1.03,0.01,6.08,0.17,6.68l-0.03-1.8c0.19,2.39,0.41-3.34,0.65-2.99c-0.21-2.68,0.31-7.06,0.01-11.45
			c0.05-0.97,0.08,0.83,0.13,0.31c-0.1-1.11-0.12-2.46-0.08-4.95l0.03,0.28c-0.03-7,0.08-10,0.14-17.86l-0.12,0.58
			c0.02-1.69,0.05-2.04,0.08-2.84c-0.18-1.94-0.01,4.74-0.21,2.98c0.24-2.24,0-11.91,0.28-13.42c0-2.6-0.14,0.76-0.14-1.84
			l0.07-0.69l-0.1-0.66c0.02-1.7,0.11-2.56,0.17-2.63c-0.01,0.41,0.02,1.17,0.02,1.62c0.09-2.21-0.03-6.23,0-6.99l-0.05,2.5
			c-0.07-7.09,0.03-15.75-0.12-22.6l-0.06,0.52c-0.1-5.23,0.06-4.19,0.01-9.93l0.01,0.21c-0.06-1.15-0.08-2.68-0.08-4.26
			c0.07,1.45,0.13-2.73,0.2-0.83c-0.11-5.67-0.09-2.81-0.29-6.55l0.09-0.86c-0.08-1.28-0.13-1.38-0.15-4.25
			c0.08,2.35,0.14-1.83,0.25,0.8c0.2-6.02-0.2-8.94,0.09-11.7c-0.26-2.76-0.14,5.21-0.2,3.66c-0.08,1.3-0.19-2.28-0.17-4.17
			c0.01-1.92,0.33-3.27,0.32-8.11c0.01,0.48,0.01,0.52,0.02,0.99c0.07-1.81-0.09-3.55,0.02-5.77c-0.16-1.24,0.01-2.88-0.19-3.24
			l0.05,4.44c-0.05-2.52-0.28-4.87-0.17-9.02c0.04,0.32,0.09,1.56,0.12,2.4c0.06-1.21-0.04-2.33,0.02-3.59
			c0.2,0.36,0.04,5.39,0.19,8.09c0.08-1.3-0.14-5.1,0.07-3.74c-0.27-1.95,0.03-4.77-0.17-8.04l0.12,0.22
			c-0.02-0.52-0.07-1.59-0.07-2.55l0.15,1.73c-0.13-2.65,0.11-5.11,0.04-7.66c0,5.33-0.14,1.2-0.23,3.45
			c-0.16-6.57,0.31-3.78,0.25-11.13c0.02,1-0.07,3.74-0.13,2.18c0.02-1.4,0.07-3.25,0.13-4.11c-0.02-4.87-0.12,0.75-0.19-1.33
			c0.14-1.66-0.06-2.39-0.11-4.53l0.12-0.02c0.08-5.55-0.25-1.47-0.16-6.47l0.17,2.11l-0.04-2.61l0.14,0.54
			c-0.1-2.84-0.08-3.72-0.04-6.5c-0.08,0.65-0.22-0.36-0.22-2.82c0.07-1.68,0.11,0.94,0.1-2.55c0.08,0.79,0.17,1.65,0.06,3.17
			c0.04,0.16,0.08,0.78,0.11,0.94c0.08-1.81,0.02-4.54,0.02-5.8c0,0.49-0.01,1.07-0.03,1.36l-0.17-5.05
			c0.05-0.8,0.08-0.16,0.12,0.46c-0.01-1.02-0.07-1.73-0.08-3.24c0.1,0.39,0.2,0.3,0.25,2.43l-0.11-4.82
			c0.04-0.32,0.12-2.47,0.15-1.85c0.06-2.67-0.19-6.55-0.11-10.09c-0.02-0.18-0.04-0.55-0.05-1.31c0.02-3.33,0.14-6.27,0.01-10.22
			l0.18-2.24c-0.04-3.09-0.22,3.03-0.29-2.11c-0.06-3.64,0.15-1.36,0.2-2.64c-0.09-1.81-0.27-4.96-0.13-8.3
			C1.47,326.12,1.44,326.99,1.46,328.02z M1.38,289.94c0.03,0.74,0.1,2.21,0.03,2.75C1.27,291.85,1.34,291.2,1.38,289.94z
			 M1.09,232.05c0.04,0.55,0.02,1.4-0.03,2.35C1.05,233.71,1.06,232.92,1.09,232.05z M0.25,70.79c0,0.03,0,0.05,0.01,0.08
			C0.21,72.51,0.23,71.93,0.25,70.79z M0.3,67.37c-0.02-0.34-0.03-0.32-0.05-0.17c0.03,0.24,0.03,1.01,0.02,1.88
			C0.31,68.83,0.33,68.39,0.3,67.37z M0.35,434.42l0.03-0.67C0.41,435.26,0.38,434.84,0.35,434.42z"/>
		<path d="M1.25,238.61c-0.02,0.21-0.04,0.27-0.07,0.32C1.21,239.22,1.23,239.23,1.25,238.61z"/>
		<path d="M1.52,351.7l0,0.12c0.01,0.06,0.01,0.1,0.02,0.12L1.52,351.7z"/>
		<path d="M1.32,120.32c-0.02,0.7-0.04,1.1-0.06,1.36C1.29,121.71,1.32,121.39,1.32,120.32z"/>
		<path d="M0.1,49.26l0.03,2.19c-0.01-1.06,0.02-1.44,0.04-1.97C0.14,49.53,0.1,49.94,0.1,49.26z"/>
		<path d="M0.84,30.26c-0.01-0.32-0.01-0.67-0.02-0.99l-0.06,0.09C0.77,30.71,0.82,31.66,0.84,30.26z"/>
		<path d="M0.5,47.23c0.1-0.17,0.07-1.55,0.05-3.08c0,0.09,0,0.18,0,0.27C0.4,43.97,0.45,45.6,0.5,47.23z"/>
		<path d="M0.54,43.8c0-0.47,0-0.95,0-1.42C0.48,42.2,0.53,42.95,0.54,43.8z"/>
		<path d="M0.23,63.04c0.03-0.73-0.13-0.46-0.09-0.87C0.02,61.36,0.3,67.02,0.23,63.04z"/>
		<polygon points="0.83,45.99 0.71,46.54 0.81,47.4 		"/>
		<path d="M0.74,58.1l0.03-2.45c-0.02,0.04-0.03-0.27-0.04-0.66C0.73,56.5,0.7,58.16,0.74,58.1z"/>
		<path d="M0.73,54.99c0-0.79,0-1.53-0.02-1.97C0.71,53.45,0.72,54.36,0.73,54.99z"/>
		<polygon points="0.87,49.34 0.84,50.06 0.83,51.79 		"/>
		<path d="M0.71,84.44l0.04,2.67c0.04,0.27,0.07-0.46,0.05-1.45C0.77,85.02,0.76,84.03,0.71,84.44z"/>
		<path d="M1.06,76.35c-0.03,0.72-0.05,0.77-0.1,1.18l0.16,0.08L1.06,76.35z"/>
		<path d="M1.09,84.15c0.04,0.27,0.12,3.88,0.11,0.49C1.17,84.37,1.13,81.69,1.09,84.15z"/>
		<polygon points="0.9,124.45 0.9,123.77 0.64,123.87 		"/>
		<path d="M1.51,159.97c0.06-3.17-0.16-0.75-0.08-3.62c-0.06-0.74-0.06,2.34-0.11,1.58C1.38,159.84,1.34,160.85,1.51,159.97z"/>
		<path d="M1.31,157.93c-0.01-0.31-0.02-0.63-0.04-0.98C1.29,157.5,1.31,157.77,1.31,157.93z"/>
		<polygon points="0.22,558.85 0.17,560.89 0.25,559.57 		"/>
		<path d="M1.71,284.28l-0.04-0.16c-0.04,0.32-0.05,0.79-0.05,1.75L1.71,284.28z"/>
		<polygon points="1.58,311.92 1.59,311.44 1.44,312.33 		"/>
		<path d="M1.77,335.11c-0.01-0.95-0.01-2.06-0.02-3.01C1.78,334.17,1.59,335.37,1.77,335.11z"/>
	</g>
</g>
</svg>
